<svg width="28" height="28" viewBox="0 0 28 28" fill="none" xmlns="http://www.w3.org/2000/svg">
<path d="M14.582 8.04505C13.476 8.04505 11.7639 6.78754 9.96099 6.83299C7.58232 6.86329 5.40061 8.21171 4.1734 10.348C1.70383 14.6356 3.53707 20.9686 5.94604 24.4533C7.1278 26.1502 8.52166 28.0592 10.3701 27.9986C12.1427 27.9228 12.8093 26.8471 14.9607 26.8471C17.097 26.8471 17.703 27.9986 19.5817 27.9531C21.4907 27.9228 22.7028 26.226 23.8694 24.5139C25.2178 22.5443 25.7784 20.6353 25.8087 20.5293C25.7632 20.5141 22.0967 19.1051 22.0513 14.8629C22.021 11.3176 24.9451 9.62073 25.0814 9.54498C23.4149 7.1057 20.8544 6.83299 19.9605 6.77239C17.6273 6.59058 15.6728 8.04505 14.582 8.04505ZM18.5212 4.46947C19.506 3.28771 20.1574 1.63628 19.9756 0C18.5666 0.060603 16.8697 0.939347 15.8546 2.12111C14.9456 3.16651 14.1577 4.84824 14.3699 6.45422C15.9304 6.57543 17.5364 5.65123 18.5212 4.46947Z" fill="white"/>
</svg>
