<svg width="16" height="17" viewBox="0 0 16 17" fill="none" xmlns="http://www.w3.org/2000/svg">
<g clip-path="url(#clip0_334_2411)">
<path d="M3.04762 0.302124V15.5402H0V0.302124H3.04762ZM4.57143 0.302124H12.1943C13.0339 0.302124 13.7143 0.986315 13.7143 1.81831V14.024C13.7143 14.8614 13.0339 15.5402 12.1943 15.5402H4.57143V0.302124ZM14.4762 3.34974H16V6.39736H14.4762V3.34974ZM14.4762 7.92117H16V10.9688H14.4762V7.92117ZM9.14286 7.92117C9.547 7.92117 9.93458 7.76063 10.2204 7.47486C10.5061 7.18909 10.6667 6.8015 10.6667 6.39736C10.6667 5.99322 10.5061 5.60564 10.2204 5.31987C9.93458 5.0341 9.547 4.87355 9.14286 4.87355C8.73872 4.87355 8.35113 5.0341 8.06536 5.31987C7.77959 5.60564 7.61905 5.99322 7.61905 6.39736C7.61905 6.8015 7.77959 7.18909 8.06536 7.47486C8.35113 7.76063 8.73872 7.92117 9.14286 7.92117ZM6.85714 10.9688H11.4286C11.4286 10.3626 11.1878 9.7812 10.7591 9.35255C10.3304 8.92389 9.74907 8.68308 9.14286 8.68308C8.53665 8.68308 7.95527 8.92389 7.52661 9.35255C7.09796 9.7812 6.85714 10.3626 6.85714 10.9688Z" fill="#029B5E"/>
</g>
<defs>
<clipPath id="clip0_334_2411">
<rect width="16" height="16" fill="white" transform="translate(0 0.302124)"/>
</clipPath>
</defs>
</svg>
