<svg width="16" height="17" viewBox="0 0 16 17" fill="none" xmlns="http://www.w3.org/2000/svg">
<g clip-path="url(#clip0_334_2519)">
<path d="M9.6 14.4H6.4V16H4.8V14.4H2.4C2.18783 14.4 1.98434 14.3157 1.83431 14.1657C1.68429 14.0157 1.6 13.8122 1.6 13.6V11.2H0V9.6H1.6V6.4H0V4.8H1.6V2.4C1.6 2.18783 1.68429 1.98434 1.83431 1.83431C1.98434 1.68429 2.18783 1.6 2.4 1.6H4.8V0H6.4V1.6H9.6V0H11.2V1.6H13.6C13.8122 1.6 14.0157 1.68429 14.1657 1.83431C14.3157 1.98434 14.4 2.18783 14.4 2.4V4.8H16V6.4H14.4V9.6H16V11.2H14.4V13.6C14.4 13.8122 14.3157 14.0157 14.1657 14.1657C14.0157 14.3157 13.8122 14.4 13.6 14.4H11.2V16H9.6V14.4ZM4 4V7.2H7.2V4H4Z" fill="#029B5E"/>
</g>
<defs>
<clipPath id="clip0_334_2519">
<rect width="16" height="16" fill="white" transform="translate(0 0.302124)"/>
</clipPath>
</defs>
</svg>
