<svg width="43" height="38" viewBox="0 0 43 38" fill="none" xmlns="http://www.w3.org/2000/svg">
<path d="M28.2931 38V23.294H33.2183L33.9551 17.5771H28.2931V13.9291C28.2931 12.274 28.7533 11.1446 31.1262 11.1446H34.1535V6.03144C32.688 5.87595 31.2151 5.80054 29.7413 5.80556C25.3776 5.80556 22.3904 8.46978 22.3904 13.3633V17.5771H17.4546V23.294H22.3904V38H4.2222C3.66229 38 3.12532 37.7776 2.72941 37.3817C2.3335 36.9858 2.11108 36.4488 2.11108 35.8889V2.11111C2.11108 1.55121 2.3335 1.01424 2.72941 0.61833C3.12532 0.22242 3.66229 0 4.2222 0H38C38.5599 0 39.0969 0.22242 39.4928 0.61833C39.8887 1.01424 40.1111 1.55121 40.1111 2.11111V35.8889C40.1111 36.4488 39.8887 36.9858 39.4928 37.3817C39.0969 37.7776 38.5599 38 38 38H28.2931Z" fill="#3B5998"/>
</svg>
