<svg width="38" height="38" viewBox="0 0 38 38" fill="none" xmlns="http://www.w3.org/2000/svg">
<g clip-path="url(#clip0_178_551)">
<path d="M13.6064 27.8274C14.7603 29.2771 15.9354 31.0998 16.5504 32.2008C17.2993 33.6321 17.6098 34.5985 18.1669 36.3295C18.4927 37.2775 18.8032 37.565 19.4547 37.565C20.1671 37.565 20.4928 37.0818 20.7425 36.3295C21.2631 34.7055 21.6649 33.47 22.3012 32.2925C24.755 27.6439 28.7553 24.341 31.0081 19.8147C31.0081 19.8147 32.4908 17.05 32.4908 13.1782C32.4908 9.56944 31.0295 7.06165 31.0295 7.06165L13.6156 27.858L13.6064 27.8274Z" fill="#34A853"/>
<path d="M7.70051 19.3254C9.10397 22.5366 11.78 25.3502 13.6066 27.8274L23.2877 16.2977C23.2877 16.2977 21.9208 18.0959 19.4518 18.0959C16.6997 18.0959 14.459 15.894 14.459 13.1109C14.459 11.1964 15.5946 9.86914 15.5946 9.86914C8.47074 10.9334 8.86651 12.6675 7.6792 19.3193L7.70051 19.3254Z" fill="#FBBC04"/>
<path d="M23.4095 0.599487C26.6365 1.64236 29.3765 3.84127 31.0204 7.05247L23.2877 16.3191C23.2877 16.3191 24.4233 14.9857 24.4233 13.0773C24.4233 10.2362 22.0365 8.09229 19.4609 8.09229C17.0163 8.09229 15.625 9.86916 15.625 9.86916C16.2187 8.51128 22.3531 1.06129 23.4186 0.602546L23.4095 0.599487Z" fill="#4285F4"/>
<path d="M9.46606 4.67613C11.3901 2.3763 14.7633 -0.00305176 19.4212 -0.00305176C21.671 -0.00305176 23.3789 0.596372 23.3789 0.596372L15.6157 9.86298C15.0921 9.57764 9.98361 5.58138 9.46606 4.66389V4.67613Z" fill="#1A73E8"/>
<path d="M7.70054 19.3253C7.70054 19.3253 6.43103 16.793 6.43103 13.1475C6.43103 9.69167 7.77665 6.66397 9.47541 4.70667L15.6251 9.90575L7.70967 19.3253H7.70054Z" fill="#EA4335"/>
</g>
<defs>
<clipPath id="clip0_178_551">
<rect width="38" height="38" fill="white"/>
</clipPath>
</defs>
</svg>
