<svg width="20" height="20" viewBox="0 0 20 20" fill="none" xmlns="http://www.w3.org/2000/svg">
<path d="M7.06165 14.7262C7.67218 15.4933 8.29399 16.4578 8.6194 17.0404C9.01568 17.7977 9.17999 18.3091 9.47479 19.225C9.64716 19.7267 9.81147 19.8788 10.1562 19.8788C10.5332 19.8788 10.7055 19.6231 10.8376 19.225C11.1131 18.3657 11.3257 17.712 11.6624 17.0889C12.9608 14.6291 15.0775 12.8814 16.2696 10.4864C16.2696 10.4864 17.0541 9.02346 17.0541 6.97473C17.0541 5.06517 16.2809 3.73819 16.2809 3.73819L7.06648 14.7424L7.06165 14.7262Z" fill="#34A853"/>
<path d="M3.93706 10.2275C4.67969 11.9267 6.09568 13.4155 7.06223 14.7263L12.1849 8.62539C12.1849 8.62539 11.4616 9.57693 10.1552 9.57693C8.69891 9.57693 7.51328 8.41178 7.51328 6.93915C7.51328 5.92611 8.11415 5.22379 8.11415 5.22379C4.34462 5.78694 4.55404 6.7045 3.92578 10.2242L3.93706 10.2275Z" fill="#FBBC04"/>
<path d="M12.2496 0.318817C13.9572 0.870647 15.407 2.03418 16.2769 3.73337L12.1852 8.63672C12.1852 8.63672 12.786 7.93116 12.786 6.92136C12.786 5.41798 11.5231 4.28358 10.1602 4.28358C8.86668 4.28358 8.13049 5.22379 8.13049 5.22379C8.44462 4.50528 11.6906 0.563176 12.2544 0.320435L12.2496 0.318817Z" fill="#4285F4"/>
<path d="M4.87097 2.47595C5.88907 1.25901 7.67396 0 10.1387 0C11.3291 0 12.2328 0.317181 12.2328 0.317181L8.12501 5.22053C7.84794 5.06955 5.14483 2.95496 4.87097 2.46948V2.47595Z" fill="#1A73E8"/>
<path d="M3.93677 10.2274C3.93677 10.2274 3.26501 8.88752 3.26501 6.95855C3.26501 5.1299 3.97704 3.52782 4.87593 2.49213L8.12997 5.24318L3.9416 10.2274H3.93677Z" fill="#EA4335"/>
</svg>
