<svg width="20" height="20" viewBox="0 0 20 20" fill="none" xmlns="http://www.w3.org/2000/svg">
<path d="M10 20C15.5228 20 20 15.5228 20 10C20 4.47715 15.5228 0 10 0C4.47715 0 0 4.47715 0 10C0 15.5228 4.47715 20 10 20Z" fill="#DC4E41"/>
<path d="M3.48154 10.091C3.44606 11.8116 4.63113 13.4535 6.26131 13.989C7.79684 14.5049 9.68479 14.119 10.7066 12.804C11.4526 11.8825 11.6221 10.6542 11.5414 9.50652C10.2263 9.49475 8.91132 9.49867 7.59826 9.50064C7.59612 9.9691 7.59826 10.4358 7.60022 10.9042C8.38759 10.926 9.17514 10.916 9.96251 10.9319C9.76375 11.613 9.31098 12.2469 8.62379 12.4929C7.297 13.0776 5.60407 12.3137 5.18659 10.9219C4.68265 9.58905 5.50763 7.98062 6.86971 7.5929C7.71431 7.29574 8.58439 7.63034 9.30705 8.06939C9.6732 7.72677 10.0158 7.36063 10.3524 6.99056C9.5313 6.30355 8.47619 5.88232 7.39148 5.97484C5.26324 6.00015 3.40078 7.96493 3.48154 10.091ZM14.1006 8.31913C14.0967 8.71095 14.0926 9.10472 14.0906 9.49636C13.6969 9.50028 13.3052 9.50224 12.9134 9.5042V10.6775C13.3052 10.6795 13.699 10.6814 14.0906 10.6855C14.0946 11.0773 14.0946 11.469 14.0985 11.8628C14.4883 11.8628 14.8802 11.8608 15.2718 11.8628C15.2739 11.469 15.2757 11.0773 15.2798 10.6836L16.457 10.6777V9.50438C16.0654 9.50242 15.6716 9.50046 15.2798 9.49653C15.2777 9.10472 15.2739 8.71095 15.2718 8.31931L14.1006 8.31913Z" fill="#DC4E41"/>
<path d="M3.48154 10.0912C3.40078 7.96511 5.26306 6.00033 7.3913 5.97484C8.47601 5.88232 9.5313 6.30355 10.3522 6.99056C10.0155 7.36081 9.67284 7.72677 9.30688 8.06939C8.58421 7.63034 7.71413 7.29574 6.86953 7.5929C5.50728 7.98079 4.68229 9.58923 5.18641 10.9219C5.60389 12.3137 7.29682 13.0776 8.62361 12.4929C9.31062 12.2469 9.76358 11.613 9.96234 10.9319C9.17496 10.9162 8.38741 10.926 7.60004 10.9042C7.59808 10.4358 7.59612 9.9691 7.59808 9.50063C8.91114 9.49867 10.2262 9.49475 11.5412 9.50652C11.6219 10.6543 11.4526 11.8827 10.7064 12.804C9.68461 14.119 7.79684 14.5049 6.26114 13.989C4.63131 13.4537 3.44606 11.8118 3.48154 10.0912ZM14.1006 8.31931H15.2718C15.2739 8.71112 15.2777 9.1049 15.2798 9.49654C15.6715 9.50046 16.0652 9.50242 16.457 9.50438V10.6777L15.2798 10.6836C15.2759 11.0773 15.2739 11.469 15.2718 11.8628C14.8802 11.8608 14.4882 11.8628 14.0985 11.8628C14.0947 11.469 14.0947 11.0773 14.0906 10.6855C13.699 10.6814 13.3052 10.6796 12.9134 10.6775V9.5042C13.3052 9.50224 13.697 9.50028 14.0906 9.49636C14.0926 9.1049 14.0965 8.71112 14.1006 8.31931Z" fill="white"/>
</svg>
