<svg width="12" height="16" viewBox="0 0 12 16" fill="none" xmlns="http://www.w3.org/2000/svg">
<path d="M0.75 0H11.25C11.4489 0 11.6397 0.0842854 11.7803 0.234315C11.921 0.384344 12 0.587827 12 0.8V15.2C12 15.4122 11.921 15.6157 11.7803 15.7657C11.6397 15.9157 11.4489 16 11.25 16H0.75C0.551088 16 0.360322 15.9157 0.21967 15.7657C0.0790178 15.6157 0 15.4122 0 15.2V0.8C0 0.587827 0.0790178 0.384344 0.21967 0.234315C0.360322 0.0842854 0.551088 0 0.75 0ZM6 12C5.80109 12 5.61032 12.0843 5.46967 12.2343C5.32902 12.3843 5.25 12.5878 5.25 12.8C5.25 13.0122 5.32902 13.2157 5.46967 13.3657C5.61032 13.5157 5.80109 13.6 6 13.6C6.19891 13.6 6.38968 13.5157 6.53033 13.3657C6.67098 13.2157 6.75 13.0122 6.75 12.8C6.75 12.5878 6.67098 12.3843 6.53033 12.2343C6.38968 12.0843 6.19891 12 6 12Z" fill="#029B5E"/>
</svg>
