<svg width="214" height="56" viewBox="0 0 214 56" fill="none" xmlns="http://www.w3.org/2000/svg">
<g clip-path="url(#clip0_63_1115)">
<path d="M30.7282 41.7255C41.638 41.7255 50.4821 32.6307 50.4821 21.4117C50.4821 10.1928 41.638 1.09802 30.7282 1.09802C19.8185 1.09802 10.9744 10.1928 10.9744 21.4117C10.9744 32.6307 19.8185 41.7255 30.7282 41.7255Z" fill="#029B5E"/>
<path d="M30.7282 41.7255C41.638 41.7255 50.4821 32.6307 50.4821 21.4117C50.4821 10.1928 41.638 1.09802 30.7282 1.09802C19.8185 1.09802 10.9744 10.1928 10.9744 21.4117C10.9744 32.6307 19.8185 41.7255 30.7282 41.7255Z" stroke="#029B5E" stroke-width="0.5" stroke-miterlimit="2.6131"/>
<path d="M34.6096 26.1227C37.0632 23.6678 37.0632 19.6876 34.6096 17.2327C32.1561 14.7778 28.1781 14.7778 25.7245 17.2327C23.271 19.6876 23.271 23.6678 25.7245 26.1227C28.1781 28.5776 32.1561 28.5776 34.6096 26.1227Z" fill="#029B5E"/>
<path d="M34.6096 26.1227C37.0632 23.6678 37.0632 19.6876 34.6096 17.2327C32.1561 14.7778 28.1781 14.7778 25.7245 17.2327C23.271 19.6876 23.271 23.6678 25.7245 26.1227C28.1781 28.5776 32.1561 28.5776 34.6096 26.1227Z" stroke="#029B5E" stroke-width="0.5" stroke-miterlimit="2.6131"/>
<path fill-rule="evenodd" clip-rule="evenodd" d="M29.1194 10.9903C35.1916 11.2458 40.3369 16.3558 40.5926 22.4238C40.8802 28.4919 36.1823 33.1867 30.1421 32.9312C24.07 32.6757 18.9247 27.5657 18.669 21.4976C18.3814 15.4296 23.0473 10.7348 29.1194 10.9903Z" fill="white"/>
<path fill-rule="evenodd" clip-rule="evenodd" d="M22.8281 21.9608L29.6308 28.5707L28.944 32.8176C26.72 32.626 25.5426 32.7218 24.0709 34.031L20.1136 37.7989H26.164L0 56L11.8719 38.9166L6.5083 38.8846L17.3337 27.3253C18.74 26.0481 18.8381 24.8027 18.74 22.9188L22.8281 21.9608Z" fill="white"/>
<path fill-rule="evenodd" clip-rule="evenodd" d="M23.0462 40.0533L10.5993 48.6424L0 56L11.7662 39.106L6.45033 39.0744L13.2248 31.8431C14.5213 33.9904 18.6055 37.9376 23.0462 40.0533Z" fill="#029B5E"/>
<path fill-rule="evenodd" clip-rule="evenodd" d="M32.1984 9.88232L38.3997 13.3449L41.7025 18.8351L32.4681 26.3529L26.1657 24.3253L24.1436 18.5855L32.1984 9.88232Z" fill="#029B5E"/>
<path d="M201.613 34.1213L206.327 41.3988H213.87L205.025 27.922L213.466 14.9393H205.923L201.568 21.7227L201.209 22.6211L200.849 21.7227L196.494 14.9393H188.951L197.392 27.922L188.547 41.3988H196.09L200.804 34.1213L201.164 33.2229L201.613 34.1213ZM186.078 41.4437V14.9843H179.747V41.4437H186.078ZM176.245 20.9141V14.9843H157.388V41.4437H163.719V31.7854H173.417V26.0802H163.719V20.9141H176.245ZM133.233 14.9843V18.9375H141.719V41.4437H145.894V18.8925H154.47V14.9393H133.233V14.9843ZM132.066 21.5879C131.796 20.5098 131.392 19.5664 130.808 18.6679C130.225 17.8144 129.506 17.0507 128.653 16.4218C127.8 15.7929 126.857 15.2987 125.78 14.9393C124.702 14.58 123.58 14.4452 122.323 14.4003C120.931 14.4003 119.674 14.58 118.551 14.9843C117.384 15.3436 116.396 15.8827 115.543 16.5566C114.69 17.2304 114.062 17.9941 113.568 18.8925C113.119 19.791 112.849 20.7344 112.849 21.8125C112.849 22.711 113.029 23.5196 113.298 24.1934C113.568 24.8673 113.972 25.4513 114.466 25.9903C114.959 26.4845 115.498 26.9337 116.127 27.2931C116.755 27.6525 117.384 27.9669 118.057 28.2365C118.731 28.506 119.359 28.7306 119.988 28.9552C120.751 29.1798 121.47 29.4494 122.233 29.674C122.996 29.8986 123.715 30.1681 124.388 30.4377C125.062 30.7072 125.69 31.0217 126.229 31.3811C126.768 31.7404 127.172 32.1447 127.486 32.594C127.8 33.0432 127.98 33.6272 127.98 34.2112C127.98 34.9749 127.755 35.6487 127.306 36.2327C126.857 36.8167 126.274 37.3108 125.466 37.6253C124.657 37.9847 123.715 38.1195 122.637 38.1644C121.694 38.1644 120.841 38.0296 120.078 37.7601C119.315 37.4905 118.641 37.1312 118.057 36.637C117.474 36.1429 117.025 35.6038 116.666 34.9749C116.306 34.3459 116.082 33.717 115.992 32.9983L111.906 34.0764C112.176 35.2444 112.625 36.2776 113.208 37.2659C113.792 38.2093 114.555 39.0628 115.453 39.7367C116.351 40.4554 117.384 40.9945 118.506 41.3539C119.674 41.7133 120.931 41.9379 122.368 41.9379C123.849 41.9379 125.196 41.7582 126.408 41.3539C127.621 40.9496 128.653 40.4105 129.506 39.6917C130.359 38.973 131.033 38.1644 131.527 37.1761C132.021 36.2327 132.245 35.1546 132.245 34.0315C132.245 32.9983 132.066 32.0549 131.706 31.2912C131.347 30.5275 130.898 29.8537 130.315 29.2697C129.731 28.7306 129.057 28.2365 128.339 27.8322C127.621 27.4279 126.857 27.0685 126.049 26.7989C125.241 26.5294 124.478 26.2599 123.715 25.9903C122.862 25.7208 122.008 25.4513 121.2 25.1817C120.392 24.9122 119.674 24.6426 119.045 24.3282C118.417 24.0137 117.923 23.6543 117.564 23.2051C117.204 22.8008 117.025 22.2617 117.025 21.6777C117.025 20.9141 117.249 20.2402 117.698 19.7011C118.147 19.1621 118.731 18.7578 119.494 18.4882C120.257 18.2187 121.11 18.0839 122.098 18.0839C123.041 18.0839 123.939 18.2636 124.747 18.623C125.555 18.9824 126.229 19.4765 126.813 20.1953C127.396 20.8691 127.755 21.7227 127.98 22.711L132.066 21.5879ZM92.3757 31.965L97.2247 21.9922L97.539 21.1387L97.8533 21.9922L102.702 31.965H92.3757ZM107.282 41.4437H111.906L98.9309 14.9843H96.1472L83.1717 41.4437H87.7961L90.49 35.9182H104.633L107.282 41.4437ZM85.8206 18.8925V14.9393H68.041V41.3988H72.2165V30.3478H82.9921V26.5743H72.2165V18.8925H85.8206Z" fill="#029B5E"/>
</g>
<defs>
<clipPath id="clip0_63_1115">
<rect width="214" height="56" fill="white"/>
</clipPath>
</defs>
</svg>
