<svg width="16" height="14" viewBox="0 0 16 14" fill="none" xmlns="http://www.w3.org/2000/svg">
<path d="M9.60001 10.5V11.9L11.2 12.6V13.3H4.80002L4.79682 12.6028L6.40002 11.9V10.5H0.793631C0.68858 10.4994 0.584685 10.4807 0.487902 10.445C0.391119 10.4093 0.303349 10.3571 0.229625 10.2917C0.155901 10.2262 0.0976711 10.1486 0.058273 10.0634C0.0188749 9.97818 -0.000916648 9.887 3.25967e-05 9.79508V0.704899C3.25967e-05 0.315699 0.364032 0 0.793631 0H15.2064C15.6448 0 16 0.314299 16 0.704899V9.79508C16 10.1843 15.636 10.5 15.2064 10.5H9.60001ZM1.60003 7.69998V9.09998H14.4V7.69998H1.60003Z" fill="#029B5E"/>
</svg>
