<svg width="20" height="20" viewBox="0 0 20 20" fill="none" xmlns="http://www.w3.org/2000/svg">
<path d="M15.8926 14.1421L9.99996 20L4.10737 14.1421C2.94194 12.9835 2.14828 11.5074 1.82674 9.90041C1.50521 8.29343 1.67024 6.62774 2.30098 5.11399C2.93171 3.60025 3.99981 2.30643 5.37022 1.39614C6.74063 0.485861 8.35179 0 9.99996 0C11.6481 0 13.2593 0.485861 14.6297 1.39614C16.0001 2.30643 17.0682 3.60025 17.6989 5.11399C18.3297 6.62774 18.4947 8.29343 18.1732 9.90041C17.8516 11.5074 17.058 12.9835 15.8926 14.1421ZM9.99996 10.1251C10.4911 10.1251 10.9621 9.93119 11.3094 9.58595C11.6567 9.2407 11.8518 8.77245 11.8518 8.2842C11.8518 7.79595 11.6567 7.3277 11.3094 6.98245C10.9621 6.63721 10.4911 6.44325 9.99996 6.44325C9.50882 6.44325 9.03779 6.63721 8.6905 6.98245C8.34321 7.3277 8.14811 7.79595 8.14811 8.2842C8.14811 8.77245 8.34321 9.2407 8.6905 9.58595C9.03779 9.93119 9.50882 10.1251 9.99996 10.1251Z" fill="#029B5E"/>
</svg>
