<svg width="10" height="16" viewBox="0 0 10 16" fill="none" xmlns="http://www.w3.org/2000/svg">
<path d="M0.714286 0H9.28571C9.47515 0 9.65684 0.0842854 9.79079 0.234315C9.92475 0.384344 10 0.587827 10 0.8V15.2C10 15.4122 9.92475 15.6157 9.79079 15.7657C9.65684 15.9157 9.47515 16 9.28571 16H0.714286C0.524845 16 0.343164 15.9157 0.20921 15.7657C0.075255 15.6157 0 15.4122 0 15.2V0.8C0 0.587827 0.075255 0.384344 0.20921 0.234315C0.343164 0.0842854 0.524845 0 0.714286 0ZM5 12C4.81056 12 4.62888 12.0843 4.49492 12.2343C4.36097 12.3843 4.28571 12.5878 4.28571 12.8C4.28571 13.0122 4.36097 13.2157 4.49492 13.3657C4.62888 13.5157 4.81056 13.6 5 13.6C5.18944 13.6 5.37112 13.5157 5.50508 13.3657C5.63903 13.2157 5.71429 13.0122 5.71429 12.8C5.71429 12.5878 5.63903 12.3843 5.50508 12.2343C5.37112 12.0843 5.18944 12 5 12Z" fill="#029B5E"/>
</svg>
