<svg width="20" height="20" viewBox="0 0 20 20" fill="none" xmlns="http://www.w3.org/2000/svg">
<g clip-path="url(#clip0_158_396)">
<path fill-rule="evenodd" clip-rule="evenodd" d="M0.915039 3.09979C0.362754 3.09979 -0.0849609 3.54751 -0.0849609 4.09979V15.9002C-0.0849609 16.4525 0.362756 16.9002 0.91504 16.9002H19C19.5522 16.9002 20 16.4525 20 15.9002V4.09979C20 3.54751 19.5522 3.09979 19 3.09979H0.915039ZM13.9718 5.42861C14.1196 5.24469 14.1005 5.13243 13.9099 5.01062H12.1679C12.1482 5.02971 12.128 5.04817 12.1079 5.06656C12.0601 5.1103 12.0128 5.15364 11.9725 5.20409L8.93425 9.06631C8.92779 9.07537 8.91994 9.08443 8.90879 9.09729C8.89936 9.10816 8.88757 9.12175 8.87229 9.14036V9.00899C8.87229 7.77652 8.87229 6.54404 8.87467 5.31396C8.87467 5.17304 8.83416 5.06794 8.70072 5.01062H7.30668C7.16132 5.05839 7.12081 5.16826 7.11842 5.30918C7.12081 6.64436 7.12081 7.98193 7.12081 9.31711V9.45086H6.99451C6.83507 9.45173 6.67563 9.45134 6.51619 9.45094C6.23716 9.45025 5.95814 9.44956 5.67911 9.45564C5.32166 9.46519 5.09051 9.82347 5.21443 10.1603C5.29307 10.3728 5.47894 10.5018 5.72439 10.5042C6.01034 10.5058 6.2963 10.5053 6.58225 10.5047C6.72523 10.5045 6.86821 10.5042 7.01119 10.5042H7.12557V10.6403V14.6483C7.12557 14.8704 7.20183 14.9468 7.42106 14.9468H8.5625C8.80318 14.9468 8.87467 14.8752 8.87467 14.6339V11.4405V11.3306C8.9962 11.2972 9.07484 11.3258 9.15825 11.4118C9.87706 12.1672 10.599 12.9216 11.3207 13.6756C11.6851 14.0564 12.0495 14.4371 12.4134 14.8178C12.5016 14.9086 12.5945 14.9492 12.7208 14.9468C13.0014 14.9432 13.282 14.9437 13.5626 14.9441C13.6561 14.9443 13.7496 14.9444 13.8432 14.9444H14.1434C14.2483 14.9444 14.3317 14.9086 14.377 14.8059C14.4198 14.7056 14.3817 14.6244 14.315 14.5503L14.2435 14.4715L10.7191 10.6021C10.6929 10.5759 10.6691 10.5472 10.6333 10.5042L10.6333 10.5042H10.7596H13.4714C13.5167 10.5042 13.562 10.5042 13.6073 10.5018C13.9242 10.4779 14.153 10.1603 14.0695 9.84974C14.0028 9.59656 13.805 9.45086 13.5215 9.45086H10.8883H10.7644C10.7753 9.43681 10.7849 9.42429 10.7937 9.41289C10.8117 9.38939 10.8262 9.37062 10.8406 9.35293C11.8843 8.04655 12.9279 6.73777 13.9715 5.429L13.9718 5.42861Z" fill="#029B5E"/>
</g>
<defs>
<clipPath id="clip0_158_396">
<rect width="20" height="20" fill="white"/>
</clipPath>
</defs>
</svg>
