<svg width="20" height="20" viewBox="0 0 20 20" fill="none" xmlns="http://www.w3.org/2000/svg">
<path d="M3.33503 2.0477C4.36161 1.12812 5.56739 0.430929 6.87651 0C7.25083 0.468955 7.72605 0.847505 8.26682 1.10751C8.8076 1.36751 9.40002 1.50227 10.0001 1.50178C10.6001 1.50227 11.1925 1.36751 11.7333 1.10751C12.2741 0.847505 12.7493 0.468955 13.1236 0C14.4327 0.430929 15.6385 1.12812 16.6651 2.0477C16.4466 2.60607 16.3567 3.20647 16.4021 3.80433C16.4474 4.4022 16.6269 4.98217 16.927 5.5012C17.2266 6.02121 17.6395 6.46701 18.1351 6.80543C18.6307 7.14385 19.1962 7.36619 19.7896 7.45591C20.0701 8.80462 20.0701 10.1966 19.7896 11.5453C18.6298 11.7233 17.5599 12.4052 16.927 13.5C16.6267 14.0192 16.4472 14.5993 16.4018 15.1974C16.3565 15.7954 16.4465 16.396 16.6651 16.9545C15.6384 17.8738 14.4326 18.5706 13.1236 19.0012C12.7492 18.5325 12.2739 18.1541 11.7331 17.8943C11.1924 17.6344 10.6 17.4998 10.0001 17.5004C9.40002 17.5 8.8076 17.6347 8.26682 17.8947C7.72605 18.1547 7.25083 18.5333 6.87651 19.0022C5.56747 18.5716 4.3617 17.8748 3.33503 16.9555C3.55365 16.397 3.64362 15.7964 3.59827 15.1984C3.55292 14.6003 3.3734 14.0202 3.07306 13.501C2.7734 12.9812 2.36042 12.5356 1.86482 12.1974C1.36923 11.8591 0.803772 11.6369 0.210483 11.5473C-0.0701611 10.1983 -0.0701611 8.80594 0.210483 7.45691C0.803862 7.36719 1.36938 7.14485 1.86498 6.80643C2.36058 6.46801 2.77351 6.02221 3.07306 5.5022C3.37325 4.98317 3.55268 4.4032 3.59803 3.80533C3.64338 3.20747 3.55349 2.60707 3.33503 2.0487V2.0477ZM11.4998 12.0982C11.8437 11.9027 12.1455 11.6411 12.3879 11.3285C12.6303 11.0158 12.8084 10.6583 12.9121 10.2766C13.0157 9.89481 13.0428 9.49632 12.9918 9.10404C12.9408 8.71175 12.8128 8.33343 12.615 7.99085C12.4172 7.64827 12.1536 7.34819 11.8393 7.1079C11.5251 6.86761 11.1664 6.69185 10.784 6.59074C10.4015 6.48963 10.0029 6.46516 9.61093 6.51875C9.219 6.57234 8.84153 6.70293 8.50027 6.90299C7.81695 7.30359 7.31982 7.9582 7.11736 8.72397C6.9149 9.48975 7.02355 10.3045 7.41961 10.9905C7.81566 11.6764 8.46696 12.1779 9.23137 12.3854C9.99579 12.593 10.8113 12.4897 11.4998 12.0982Z" fill="#029B5E"/>
</svg>
