<svg width="84" height="28" viewBox="0 0 84 28" fill="none" xmlns="http://www.w3.org/2000/svg">
<g clip-path="url(#clip0_265_755)">
<path d="M42.7104 16.7587C42.2252 16.7587 42.0265 16.5542 42.0265 16.0013V15.3627H39.7437V16.5369C39.7437 17.6073 40.9689 18.2941 42.7471 18.2941C44.7196 18.2941 45.5157 17.3568 45.6683 16.6138C45.6928 16.4411 45.7101 16.1603 45.7101 15.9235C45.7101 15.5975 45.7014 15.3627 45.6568 15.0445C45.5689 13.9813 44.5921 13.414 43.711 13.0669C42.4634 12.5745 42.1279 12.2981 42.0351 11.8575C41.9948 11.7279 42.0027 11.4601 42.0351 11.3276C42.1014 11.1052 42.3907 10.9374 42.729 10.9374C43.1163 10.9374 43.4295 11.2016 43.4295 11.5299V12.221H45.5726V11.1901C45.5726 9.8554 44.063 9.44152 42.7556 9.44434C41.3548 9.44799 40.2152 9.87773 39.9741 10.9799C39.9258 11.2419 39.8955 11.5752 39.8955 11.9272C39.8955 12.5658 39.9906 13.1165 40.1274 13.3684C40.27 13.6362 40.7731 14.1538 42.0481 14.7406C43.2927 15.315 43.3575 15.5181 43.4331 15.7959C43.4518 15.8607 43.4612 15.9298 43.4612 16.0011C43.4612 16.4196 43.1257 16.7587 42.7104 16.7587ZM59.7875 9.7181H57.1247V18.0213H59.252L59.1289 12.9108H59.288L61.6427 18.0213H64.1746V9.7181H62.0472L62.1696 14.8279H62.0113L59.7875 9.7181ZM54.2926 16.1309V9.7181H51.8724V16.1913C51.8724 16.4879 51.5946 16.729 51.259 16.729C50.9236 16.729 50.6449 16.4878 50.6449 16.1913V9.7181H48.2239V16.1309C48.2239 17.3309 49.5874 18.2949 51.259 18.2949C52.9291 18.2949 54.2926 17.331 54.2926 16.1309ZM32.7205 14.2917H32.5368L31.771 9.71821H28.1456L27.9735 18.0214H30.0972V11.6338H30.3045L31.5471 18.0214H33.7053L34.9486 11.6338H35.1551V18.0214H37.2788L37.106 9.71821H33.3778L32.7155 14.2917H32.7205ZM22.5872 11.5769L23.4828 18.0214H25.8324L24.3128 9.71821H20.7054L19.1865 18.0214H21.5347L22.431 11.5769H22.5872ZM39.6321 2.08589C62.6506 -1.97217 82.2518 0.070945 83.4108 6.6514C83.999 9.98227 79.7451 13.8388 72.4151 17.3597C72.6584 17.0675 72.7902 16.6996 72.7902 16.3338V13.4348H69.9438V14.5665H70.4995V16.1963C70.4995 16.4937 70.2195 16.734 69.8811 16.734C69.5443 16.734 69.265 16.4936 69.265 16.1963V11.4422C69.265 11.1456 69.5443 10.9052 69.8811 10.9052C70.2195 10.9052 70.4995 11.1457 70.4995 11.4422V12.2239H72.7902V11.661C72.7902 10.2068 71.9717 9.44298 69.8811 9.44298C67.8258 9.44298 67.1081 10.4753 67.1081 11.5659V16.3337C67.1081 17.4244 68.3542 18.3005 69.8811 18.3005C70.0482 18.3005 70.213 18.2903 70.3721 18.2702L70.3685 18.2997C63.4035 21.3579 54.1509 24.0942 43.8334 25.914C20.8156 29.9723 1.21295 27.9293 0.0539418 21.348C-0.544292 17.9588 3.87078 14.0259 11.439 10.4531C11.3959 10.5712 11.3346 10.7749 11.3095 10.9188C11.2626 11.1823 11.2332 11.5149 11.2332 11.8655C11.2332 12.5055 11.3261 13.0563 11.4599 13.3082C11.5967 13.5753 12.0294 14.154 13.2719 14.7408C14.4878 15.3152 14.5504 15.5183 14.6239 15.7961C14.6426 15.8609 14.6513 15.93 14.6513 16.0013C14.6513 16.4196 14.3231 16.7587 13.9191 16.7587C13.4454 16.7587 13.2518 16.5542 13.2518 16.0013V15.3627H11.0244V16.5369C11.0244 17.6073 12.2194 18.2941 13.9536 18.2941C15.8794 18.2941 16.6561 17.3568 16.8044 16.6138C16.8289 16.4411 16.8455 16.1603 16.8455 15.9235C16.8455 15.5975 16.8375 15.3627 16.7944 15.0445C16.7073 13.9813 15.7555 13.414 14.8953 13.0669C13.678 12.5745 13.3511 12.2981 13.2605 11.8575C13.2201 11.7279 13.2295 11.4601 13.2605 11.3276C13.3238 11.1052 13.6067 10.9374 13.9371 10.9374C14.3144 10.9374 14.6203 11.2016 14.6203 11.5299V12.221H16.7115V11.1901C16.7115 9.8554 15.2394 9.44152 13.963 9.44434C13.9084 9.44434 13.7053 9.45801 13.6513 9.45874C20.55 6.49814 29.5861 3.85753 39.6321 2.08589Z" fill="white"/>
</g>
<defs>
<clipPath id="clip0_265_755">
<rect width="83.4647" height="28" fill="white"/>
</clipPath>
</defs>
</svg>
