<svg width="25" height="28" viewBox="0 0 25 28" fill="none" xmlns="http://www.w3.org/2000/svg">
<path d="M19.8239 6.62414L21.7612 4.68676L23.6466 6.57213L21.7092 8.50951C23.6236 10.9058 24.5478 13.9441 24.2921 17.0005C24.0363 20.0569 22.6199 22.8994 20.3339 24.9441C18.0478 26.9889 15.0656 28.0807 11.9997 27.9953C8.93379 27.91 6.01693 26.654 3.84817 24.4852C1.67941 22.3164 0.423375 19.3996 0.338026 16.3337C0.252677 13.2678 1.34449 10.2856 3.38924 7.99951C5.43398 5.71345 8.27644 4.29709 11.3328 4.04131C14.3893 3.78552 17.4276 4.70974 19.8239 6.62414ZM10.9997 9.33352V17.3337H13.6664V9.33352H10.9997ZM6.9996 0H17.6665V2.66672H6.9996V0Z" fill="#029B5E"/>
</svg>
