<?xml version="1.0" standalone="no"?>
<!DOCTYPE svg PUBLIC "-//W3C//DTD SVG 20010904//EN"
 "http://www.w3.org/TR/2001/REC-SVG-20010904/DTD/svg10.dtd">
<svg version="1.0" xmlns="http://www.w3.org/2000/svg"
 width="140.000000pt" height="140.000000pt" viewBox="0 0 140.000000 140.000000"
 preserveAspectRatio="xMidYMid meet">
<metadata>
Created by potrace 1.14, written by Peter Selinger 2001-2017
</metadata>
<g transform="translate(0.000000,140.000000) scale(0.100000,-0.100000)"
fill="#000000" stroke="none">
<path d="M17 1329 c-16 -9 -17 -50 -17 -634 0 -607 1 -625 19 -635 27 -14
1335 -14 1362 0 18 10 19 28 19 635 0 607 -1 625 -19 635 -27 14 -1339 13
-1364 -1z m1141 -140 c36 -12 60 -44 64 -85 l3 -29 -72 -3 c-74 -3 -85 -9 -58
-32 13 -11 23 -10 56 0 51 17 71 2 38 -29 -36 -33 -102 -29 -140 8 -40 40 -42
110 -3 146 14 13 35 26 47 28 12 2 25 5 28 6 3 0 20 -4 37 -10z m-928 -16 c0
-15 1 -15 18 0 23 21 85 22 102 2 11 -13 14 -13 27 0 19 20 77 19 94 -1 9 -11
13 -45 14 -98 l0 -81 -30 0 c-30 0 -30 0 -35 69 -5 73 -16 88 -44 61 -11 -12
-16 -35 -16 -76 0 -60 0 -60 -27 -57 -27 3 -28 5 -31 71 -2 48 -7 70 -18 74
-27 10 -43 -17 -46 -80 -3 -59 -4 -62 -30 -65 l-28 -3 0 100 0 101 25 0 c17 0
25 -6 25 -17z m491 0 c39 -23 57 -80 39 -123 -17 -42 -46 -60 -98 -60 -82 0
-126 75 -86 151 25 49 91 64 145 32z m179 1 c0 -14 1 -14 16 0 24 25 54 20 54
-7 0 -17 -9 -27 -32 -38 -32 -13 -33 -17 -36 -76 -3 -62 -3 -63 -32 -63 l-30
0 0 100 0 100 30 0 c21 0 30 -5 30 -16z m364 -246 c14 -19 16 -71 16 -368 0
-261 -3 -350 -12 -363 -12 -16 -55 -17 -568 -15 l-555 3 -3 369 c-2 264 1 373
9 382 9 12 107 14 555 14 l543 0 15 -22z"/>
<path d="M1092 1138 c-21 -21 -13 -28 28 -28 22 0 40 4 40 8 0 14 -23 32 -40
32 -9 0 -21 -5 -28 -12z"/>
<path d="M636 1124 c-19 -18 -20 -38 -6 -65 15 -27 46 -24 66 6 15 23 15 27 0
50 -19 29 -38 32 -60 9z"/>
<path d="M220 565 l0 -305 485 0 485 0 0 305 0 305 -485 0 -485 0 0 -305z
m590 172 c0 -36 -133 -369 -152 -381 -21 -13 -51 2 -56 27 -5 27 139 386 157
390 26 6 51 -12 51 -36z m-276 17 c9 -3 16 -18 16 -33 0 -20 -17 -41 -75 -91
l-76 -65 76 -68 c79 -72 94 -106 56 -126 -22 -12 -35 -3 -154 103 -61 54 -77
74 -75 92 2 15 38 55 98 108 95 85 105 91 134 80z m475 -78 c52 -46 98 -92
104 -101 8 -15 -6 -33 -84 -107 -101 -96 -124 -111 -151 -96 -36 18 -21 51 58
123 l76 70 -76 65 c-59 50 -76 70 -76 91 0 64 40 52 149 -45z"/>
</g>
</svg>
