<svg width="57" height="57" viewBox="0 0 57 57" fill="none" xmlns="http://www.w3.org/2000/svg">
<circle cx="28.5" cy="28.5" r="28.5" fill="#FEF2E5"/>
<path d="M40.4272 21.6173C40.066 17.9243 36.871 16.6904 32.8353 16.3481L32.8299 11.2244L29.7108 11.239L29.7203 16.2331C28.8951 16.239 28.0527 16.2492 27.2319 16.2724L27.2137 11.2437L24.0946 11.2583L24.1 16.382C23.4261 16.4048 22.7651 16.4061 22.1041 16.4074L22.0998 16.3901L17.7839 16.3939L17.7989 19.7334C17.7989 19.7334 20.1015 19.6858 20.0756 19.7291C21.3414 19.7224 21.7489 20.4647 21.8711 21.0952L21.8908 26.9317C21.9815 26.9272 22.0938 26.9356 22.2278 26.957C22.1198 26.9658 22.0075 26.9574 21.8995 26.9662L21.9236 35.1529C21.8769 35.5505 21.6318 36.1817 20.7505 36.1834C20.7937 36.2092 18.4738 36.1877 18.4738 36.1877L17.8717 39.9214L21.9283 39.9094C22.68 39.9037 23.4361 39.9152 24.1532 39.9182L24.176 45.111L27.2952 45.0964L27.2854 39.9554C28.1365 39.9797 28.9617 39.9739 29.7868 39.968L29.8051 45.0701L32.9243 45.0555L32.9058 39.88C38.1543 39.5676 41.8239 38.2387 42.2681 33.2956C42.6278 29.329 40.7495 27.5613 37.7802 26.8584C39.5757 25.965 40.7045 24.3212 40.4272 21.6173ZM36.0806 32.7241C36.0836 36.5993 29.4556 36.1755 27.3431 36.1752L27.3214 29.3105C29.434 29.3108 36.0729 28.6847 36.0806 32.7241ZM34.6106 23.0281C34.6173 26.5533 29.0824 26.1664 27.3198 26.1697L27.308 19.9271C29.0706 19.9237 34.6036 19.3559 34.6106 23.0281Z" fill="#F7931A"/>
</svg>
