<svg width="57" height="57" viewBox="0 0 57 57" fill="none" xmlns="http://www.w3.org/2000/svg">
<circle cx="28.5" cy="28.5" r="28.5" fill="#F6F7FA"/>
<path d="M31.4991 17.8125H21.9054L21.1116 22.2521L29.7639 22.2652C34.0242 22.2652 35.2887 23.8119 35.2478 26.3791C35.2293 27.695 34.6557 29.9207 34.4131 30.638C33.7578 32.5631 32.4076 34.7545 27.347 34.7479L18.9373 34.7427L18.1436 39.1875H27.7123C31.0864 39.1875 32.5237 38.7933 34.0413 38.0931C37.4089 36.5399 39.4144 33.2132 40.22 28.8712C41.4146 22.4103 39.9247 17.8125 31.4978 17.8125H31.4991Z" fill="#008CE7"/>
<path d="M27.1757 28.0893C27.4882 26.7905 27.5871 26.2697 27.5871 26.2697H17.7692C15.2587 26.2697 14.9 27.9047 14.6614 28.8936C14.3489 30.1871 14.25 30.7145 14.25 30.7145H24.0692C26.5784 30.7145 26.9371 29.0795 27.1757 28.0893Z" fill="#008CE7"/>
</svg>
