<svg width="32" height="32" viewBox="0 0 32 32" fill="none" xmlns="http://www.w3.org/2000/svg">
<g filter="url(#filter0_i_91_1079)">
<path fill-rule="evenodd" clip-rule="evenodd" d="M29.3285 11.1668H23.6822C21.0547 11.1715 18.9261 13.2469 18.9213 15.8088C18.9178 18.3764 21.0487 20.4611 23.6822 20.4645H29.3332V20.8725C29.3332 25.3514 26.6179 28 22.023 28H9.9779C5.38176 28 2.6665 25.3514 2.6665 20.8725V11.1171C2.6665 6.63816 5.38176 4 9.9779 4H22.0182C26.6132 4 29.3285 6.63816 29.3285 11.1171V11.1668ZM8.98591 11.1565H16.5059H16.5107H16.5202C17.0831 11.1542 17.5382 10.707 17.5359 10.1569C17.5335 9.60801 17.0736 9.16427 16.5107 9.16658H8.98591C8.4265 9.16889 7.97257 9.61147 7.9702 10.1581C7.96783 10.707 8.42294 11.1542 8.98591 11.1565Z" fill="url(#paint0_linear_91_1079)"/>
</g>
<g filter="url(#filter1_i_91_1079)">
<path d="M21.3833 16.3958C21.6622 17.664 22.7741 18.5563 24.0436 18.5331H28.3768C28.905 18.5331 29.3335 18.0956 29.3335 17.5549V14.1795C29.3323 13.64 28.905 13.2014 28.3768 13.2002H23.9416C22.4975 13.2048 21.3312 14.4035 21.3335 15.8806C21.3335 16.0535 21.3505 16.2263 21.3833 16.3958Z" fill="url(#paint1_linear_91_1079)"/>
</g>
<path d="M23.9998 17.1999C24.7362 17.1999 25.3332 16.6029 25.3332 15.8665C25.3332 15.1302 24.7362 14.5332 23.9998 14.5332C23.2635 14.5332 22.6665 15.1302 22.6665 15.8665C22.6665 16.6029 23.2635 17.1999 23.9998 17.1999Z" fill="#151516"/>
<defs>
<filter id="filter0_i_91_1079" x="2.6665" y="4" width="26.6665" height="32" filterUnits="userSpaceOnUse" color-interpolation-filters="sRGB">
<feFlood flood-opacity="0" result="BackgroundImageFix"/>
<feBlend mode="normal" in="SourceGraphic" in2="BackgroundImageFix" result="shape"/>
<feColorMatrix in="SourceAlpha" type="matrix" values="0 0 0 0 0 0 0 0 0 0 0 0 0 0 0 0 0 0 127 0" result="hardAlpha"/>
<feOffset dy="8"/>
<feGaussianBlur stdDeviation="10"/>
<feComposite in2="hardAlpha" operator="arithmetic" k2="-1" k3="1"/>
<feColorMatrix type="matrix" values="0 0 0 0 1 0 0 0 0 0.803083 0 0 0 0 0 0 0 0 1 0"/>
<feBlend mode="normal" in2="shape" result="effect1_innerShadow_91_1079"/>
</filter>
<filter id="filter1_i_91_1079" x="21.3335" y="13.2002" width="8" height="13.3335" filterUnits="userSpaceOnUse" color-interpolation-filters="sRGB">
<feFlood flood-opacity="0" result="BackgroundImageFix"/>
<feBlend mode="normal" in="SourceGraphic" in2="BackgroundImageFix" result="shape"/>
<feColorMatrix in="SourceAlpha" type="matrix" values="0 0 0 0 0 0 0 0 0 0 0 0 0 0 0 0 0 0 127 0" result="hardAlpha"/>
<feOffset dy="8"/>
<feGaussianBlur stdDeviation="10"/>
<feComposite in2="hardAlpha" operator="arithmetic" k2="-1" k3="1"/>
<feColorMatrix type="matrix" values="0 0 0 0 1 0 0 0 0 0.803083 0 0 0 0 0 0 0 0 1 0"/>
<feBlend mode="normal" in2="shape" result="effect1_innerShadow_91_1079"/>
</filter>
<linearGradient id="paint0_linear_91_1079" x1="-3.47959" y1="13.1152" x2="-0.485497" y2="33.3032" gradientUnits="userSpaceOnUse">
<stop stop-color="#FFBF62"/>
<stop offset="1" stop-color="#FF603E"/>
</linearGradient>
<linearGradient id="paint1_linear_91_1079" x1="19.4897" y1="15.2258" x2="19.9874" y2="19.756" gradientUnits="userSpaceOnUse">
<stop stop-color="#FFBF62"/>
<stop offset="1" stop-color="#FF603E"/>
</linearGradient>
</defs>
</svg>
