<svg width="127" height="24" viewBox="0 0 127 24" fill="none" xmlns="http://www.w3.org/2000/svg">
<g clip-path="url(#clip0_91_1110)">
<path d="M0 6.97912H4.13921L7.53596 16.6682L11.1926 6.97912H13.7355L17.3179 16.5568L20.7146 6.97912H24.891L18.7471 24H16.0557L12.4548 14.3295L8.76102 24.0186H6.08817L0 6.97912Z" fill="white"/>
<path d="M27.3037 0H31.5172V9.13225C32.3524 8.40835 33.1691 7.87007 34.023 7.5174C34.8582 7.16473 35.7121 6.97912 36.5659 6.97912C38.2364 6.97912 39.6285 7.53596 40.7979 8.7239C41.7817 9.72622 42.2643 11.2111 42.2643 13.1601V24H38.0879V16.9466C38.0879 14.9791 37.9951 13.6427 37.8095 12.9559C37.6239 12.2506 37.3084 11.7309 36.8629 11.3968C36.4174 11.0626 35.8606 10.877 35.1923 10.877C34.3385 10.877 33.5961 11.1555 32.9835 11.7309C32.371 12.3063 31.9441 13.0858 31.7028 14.0696C31.5729 14.5708 31.5172 15.7401 31.5172 17.5592V24H27.3037V0Z" fill="white"/>
<path d="M48.0184 6.97912C46.8304 6.97912 45.9023 7.96288 45.9023 9.11369V24H50.1344V9.11369C50.1344 7.96288 49.2248 6.97912 48.0184 6.97912Z" fill="white"/>
<path d="M58.7471 6.97912V0H54.5151V24H58.7471V10.6914H61.2529V6.97912H58.7471Z" fill="white"/>
<path fill-rule="evenodd" clip-rule="evenodd" d="M79.9813 16.6682H67.0068C67.1924 17.819 67.6936 18.7285 68.5103 19.4153C69.327 20.1021 70.3664 20.4362 71.6286 20.4362C73.1321 20.4362 74.4314 19.8979 75.5265 18.8399L78.9233 20.4548C78.0694 21.6613 77.0671 22.5522 75.8792 23.1462C74.6912 23.7216 73.2991 24.0186 71.6657 24.0186C69.1414 24.0186 67.081 23.2204 65.5033 21.6241C63.907 20.0278 63.1274 18.0232 63.1274 15.6102C63.1274 13.1415 63.9256 11.0812 65.5033 9.46636C67.081 7.83295 69.0671 7.01624 71.4615 7.01624C74.0045 7.01624 76.0648 7.83295 77.6425 9.46636C79.2388 11.0998 80.0184 13.2529 80.0184 15.9258L79.9813 16.6682ZM75.9534 13.4756C75.6936 12.5661 75.1553 11.8422 74.3757 11.2668C73.5961 10.71 72.6866 10.413 71.6472 10.413C70.5149 10.413 69.5312 10.7285 68.6773 11.3596C68.139 11.7494 67.6564 12.4548 67.1924 13.4571H75.9534V13.4756Z" fill="white"/>
<path d="M47.9815 0C48.7425 0 49.4107 0.278422 49.949 0.816705C50.5059 1.37355 50.7657 2.0232 50.7657 2.82135C50.7657 3.60093 50.4873 4.25058 49.949 4.78886C49.4107 5.32715 48.7611 5.60557 48.0001 5.60557C47.2205 5.60557 46.5523 5.32715 46.014 4.7703C45.4571 4.21346 45.1973 3.54524 45.1973 2.7471C45.1973 1.98608 45.4757 1.33643 46.014 0.798144C46.5523 0.278422 47.2205 0 47.9815 0Z" fill="white"/>
<path d="M92.3617 8.85383L91.8977 9.70766C91.842 9.81903 91.8049 9.89327 91.7863 9.94896C91.7678 10.0046 91.7678 10.0603 91.7678 10.116C91.7678 10.2645 91.8235 10.3944 91.9348 10.5058C92.0462 10.6172 92.1947 10.6729 92.3617 10.6729C92.5288 10.6729 92.6587 10.6172 92.7701 10.5058C92.8815 10.3944 92.9371 10.2645 92.9371 10.116C92.9371 9.94896 92.8815 9.81903 92.7701 9.70766C92.6773 9.63341 92.5845 9.57773 92.4731 9.55916L92.7515 9.03944L92.3617 8.85383ZM92.4917 10.116C92.4917 10.1531 92.4731 10.1903 92.4545 10.2274C92.3989 10.2831 92.3061 10.2831 92.2504 10.2274C92.2132 10.1903 92.2132 10.1717 92.2132 10.116C92.2132 10.0789 92.2318 10.0418 92.2504 10.0046C92.2689 9.98608 92.3061 9.96752 92.3432 9.96752C92.3803 9.96752 92.4174 9.98608 92.4545 10.0046C92.4917 10.0418 92.4917 10.0789 92.4917 10.116ZM94.4035 2.24594L93.661 3.30394L93.6425 3.32251V3.69374H94.3664V4.02784H94.8119V3.69374H94.9603V3.28538H94.8119V2.2645H94.4035V2.24594ZM94.1993 3.26682L94.3849 3.00696V3.26682H94.1993ZM84.7144 17.1694L85.3269 15.9814H84.6773V15.5731H85.9023V15.8329L85.1228 17.355L84.7144 17.1694ZM92.3432 21.3086C92.3803 21.2715 92.3989 21.2343 92.3989 21.1601C92.3989 21.1044 92.3803 21.0487 92.3432 21.0302C92.2875 20.9745 92.2318 20.9559 92.1576 20.993C92.139 21.0116 92.1019 21.0302 92.0833 21.0487L92.0648 21.0673L91.7121 20.993L91.9348 19.9907H92.8443V20.3991H92.2875L92.2504 20.5476H92.2689C92.436 20.5476 92.5845 20.6032 92.6958 20.7146C92.8072 20.826 92.8629 20.9745 92.8629 21.1415C92.8629 21.3086 92.8072 21.4571 92.6773 21.587C92.5474 21.6984 92.3989 21.7726 92.2318 21.7726C92.0833 21.7726 91.9348 21.7355 91.8235 21.6427C91.7121 21.5499 91.6378 21.4385 91.6007 21.29L91.5822 21.2158H92.0462L92.0648 21.2529C92.0833 21.29 92.1019 21.3271 92.139 21.3457C92.1947 21.3643 92.2875 21.3643 92.3432 21.3086ZM92.139 12.7332C92.2504 12.6218 92.3061 12.4919 92.3061 12.3434C92.3061 12.1763 92.2504 12.0464 92.139 11.935C92.0462 11.8608 91.9534 11.8051 91.842 11.7865L92.1204 11.2668L91.7306 11.0812L91.2666 11.935C91.2109 12.0464 91.1738 12.1206 91.1552 12.1763C91.1367 12.232 91.1367 12.2877 91.1367 12.3434C91.1367 12.4919 91.1924 12.6218 91.3037 12.7332C91.4151 12.8445 91.5636 12.9002 91.7306 12.9002C91.8791 12.9002 92.0276 12.8445 92.139 12.7332ZM91.5822 12.3434C91.5822 12.3063 91.6007 12.2691 91.6193 12.232C91.6378 12.2135 91.675 12.1949 91.7121 12.1949C91.7492 12.1949 91.7863 12.2135 91.8235 12.232C91.8606 12.2691 91.8606 12.2877 91.8606 12.3434C91.8606 12.3805 91.842 12.4176 91.8235 12.4548C91.7678 12.5104 91.675 12.5104 91.6193 12.4548C91.5822 12.4176 91.5822 12.3805 91.5822 12.3434ZM101.197 17.2993V16.9652H101.345V16.5568H101.197V15.536H100.77L100.028 16.594L100.009 16.6125V16.9838H100.733V17.3179H101.197V17.2993ZM100.566 16.5568L100.752 16.297V16.5568H100.566ZM90.7098 12.8445C90.8026 12.8074 90.8768 12.7332 90.9325 12.6404C90.9882 12.5476 91.0067 12.4548 91.0067 12.3619C91.0067 12.2691 90.9882 12.1763 90.9325 12.1021C90.8954 12.0464 90.8583 11.9907 90.8026 11.9536C90.8397 11.9165 90.8768 11.8608 90.8954 11.8237C90.9139 11.768 90.9325 11.7123 90.9325 11.6381C90.9325 11.5452 90.9139 11.4524 90.8583 11.3782C90.8026 11.3039 90.7469 11.2297 90.6541 11.1926C90.487 11.0998 90.2457 11.0998 90.0787 11.1926C89.9859 11.2297 89.9302 11.3039 89.8745 11.3782C89.8188 11.4524 89.8003 11.5452 89.8003 11.6381C89.8003 11.7123 89.8188 11.768 89.8374 11.8422C89.8559 11.8793 89.8745 11.9165 89.9116 11.9536C89.8559 12.0093 89.8188 12.065 89.7817 12.1206C89.7446 12.1949 89.726 12.2877 89.726 12.3805C89.726 12.4919 89.7446 12.5847 89.8003 12.6775C89.8559 12.7703 89.9302 12.826 90.023 12.8817C90.1158 12.9188 90.2272 12.9374 90.3757 12.9374C90.5056 12.9002 90.617 12.8817 90.7098 12.8445ZM90.4499 11.7123C90.4128 11.7494 90.3385 11.7494 90.2829 11.7123C90.2643 11.6937 90.2457 11.6566 90.2457 11.6381C90.2457 11.6009 90.2643 11.5824 90.2829 11.5638C90.3014 11.5452 90.32 11.5267 90.3571 11.5267C90.3942 11.5267 90.4313 11.5452 90.4499 11.5638C90.4685 11.5824 90.487 11.6009 90.487 11.6381C90.4685 11.6752 90.4685 11.6937 90.4499 11.7123ZM90.2272 12.2135C90.2643 12.1763 90.32 12.1578 90.3757 12.1578C90.4313 12.1578 90.487 12.1763 90.5242 12.2135C90.5613 12.2506 90.5798 12.2877 90.5798 12.3248C90.5798 12.3805 90.5613 12.4176 90.5242 12.4362C90.4499 12.4919 90.3014 12.4919 90.2272 12.4362C90.19 12.3991 90.1715 12.3619 90.1715 12.3248C90.1715 12.2877 90.19 12.2506 90.2272 12.2135ZM94.5891 21.7169V20.4176H94.1993L94.4592 20.0093H95.0346V21.7355H94.5891V21.7169ZM89.132 20.529C89.0392 20.6218 88.9835 20.7332 88.9835 20.8631C88.9835 20.9559 89.0021 21.0487 89.0392 21.123C89.0764 21.1972 89.132 21.2529 89.2249 21.29C89.3733 21.3643 89.559 21.3643 89.7074 21.3086C89.7817 21.2715 89.8559 21.2158 89.9302 21.1415L89.9859 21.1044L90.3014 21.42L90.2457 21.4571C90.1158 21.587 89.9859 21.6613 89.8745 21.7169C89.7631 21.7726 89.6146 21.7912 89.4661 21.7912C89.1877 21.7912 88.965 21.6984 88.7794 21.5313C88.5938 21.3643 88.5195 21.1415 88.5195 20.8817C88.5195 20.7146 88.5566 20.5661 88.6494 20.4176C88.7237 20.2877 88.8536 20.1763 89.0021 20.1021C89.2805 19.9536 89.6146 19.935 89.9116 20.065C90.0416 20.1206 90.1715 20.2135 90.2643 20.3248L90.3014 20.3805L89.9859 20.6775L89.9302 20.6218C89.8003 20.4733 89.6332 20.4176 89.4661 20.4176C89.3362 20.3805 89.2249 20.4362 89.132 20.529ZM90.9325 21.7726C91.0996 21.7726 91.2295 21.7169 91.3409 21.6056C91.4522 21.4942 91.5079 21.3643 91.5079 21.2158C91.5079 21.0487 91.4522 20.9188 91.3409 20.8074C91.2481 20.7146 91.1552 20.6775 91.0439 20.6589L91.3223 20.1392L90.9325 19.9536L90.4685 20.8074C90.4128 20.9188 90.3757 20.993 90.3571 21.0487C90.3385 21.1044 90.3385 21.1601 90.3385 21.2158C90.3385 21.3643 90.3942 21.4942 90.5056 21.6056C90.617 21.7169 90.7655 21.7726 90.9325 21.7726ZM90.784 21.1972C90.784 21.1601 90.8026 21.123 90.8211 21.0858C90.8397 21.0673 90.8768 21.0487 90.9139 21.0487C90.9511 21.0487 90.9882 21.0673 91.0253 21.0858C91.0624 21.123 91.0624 21.1415 91.0624 21.1972C91.0624 21.2343 91.0439 21.2715 91.0253 21.3086C90.9696 21.3643 90.8768 21.3643 90.8211 21.3086C90.8026 21.2715 90.784 21.2529 90.784 21.1972ZM95.3873 21.6056L95.9998 20.4176H95.3501V20.0093H96.5752V20.2691L95.7956 21.8097L95.3873 21.6056ZM93.494 12.065C93.5497 11.9536 93.5868 11.8793 93.6054 11.8237C93.6239 11.768 93.6239 11.7123 93.6239 11.6566C93.6239 11.5081 93.5682 11.3782 93.4569 11.2668C93.3455 11.1555 93.197 11.0998 93.03 11.0998C92.8629 11.0998 92.733 11.1555 92.6216 11.2668C92.5102 11.3782 92.4545 11.5081 92.4545 11.6752C92.4545 11.8422 92.5102 11.9722 92.6216 12.0835C92.7144 12.1763 92.8072 12.2135 92.9186 12.232L92.6402 12.7517L93.03 12.9374L93.494 12.065ZM93.1784 11.6752C93.1784 11.7123 93.1599 11.7494 93.1413 11.7865C93.0856 11.8422 92.9928 11.8422 92.9371 11.7865C92.9 11.7494 92.9 11.7309 92.9 11.6752C92.9 11.6381 92.9186 11.6009 92.9371 11.5638C92.9743 11.5267 92.9928 11.5267 93.0485 11.5267C93.0856 11.5267 93.1228 11.5452 93.1413 11.5638C93.1784 11.5824 93.1784 11.6195 93.1784 11.6752ZM91.1181 10.2274C91.1552 10.1903 91.1738 10.1531 91.1738 10.0789C91.1738 10.0232 91.1552 9.96752 91.1181 9.94896C91.0624 9.89327 91.0067 9.87471 90.9325 9.91183C90.9139 9.93039 90.8768 9.94896 90.8583 9.96752L90.8397 9.98608L90.487 9.91183L90.7098 8.90951H91.6193V9.31787H91.0624L91.0253 9.46636H91.0439C91.2109 9.46636 91.3594 9.52204 91.4708 9.63341C91.5822 9.74478 91.6378 9.89327 91.6378 10.0603C91.6378 10.2274 91.5822 10.3759 91.4522 10.5058C91.3223 10.6172 91.1738 10.6914 91.0067 10.6914C90.8583 10.6914 90.7098 10.6543 90.5984 10.5615C90.487 10.4687 90.4128 10.3573 90.3757 10.2088L90.3571 10.1346H90.8211L90.8397 10.1717C90.8583 10.2088 90.8768 10.2459 90.9139 10.2645C90.9511 10.2831 91.0624 10.2831 91.1181 10.2274ZM100.807 14.2367C100.807 14.4594 100.826 14.6264 100.881 14.7378C100.937 14.8677 101.011 14.9606 101.104 15.0162C101.197 15.0719 101.327 15.109 101.457 15.109C101.605 15.109 101.717 15.0719 101.81 15.0162C101.902 14.9606 101.977 14.8492 102.032 14.7193C102.088 14.5893 102.107 14.4223 102.107 14.1995C102.107 13.9768 102.088 13.8097 102.032 13.6798C101.977 13.5499 101.902 13.4571 101.81 13.3828C101.717 13.3271 101.587 13.29 101.457 13.29C101.253 13.29 101.086 13.3643 100.956 13.5313C100.844 13.6984 100.807 13.9211 100.807 14.2367ZM101.253 14.2367C101.253 14.0882 101.271 13.9768 101.29 13.9026C101.308 13.8283 101.327 13.7912 101.364 13.7726C101.401 13.7541 101.42 13.7355 101.457 13.7355C101.494 13.7355 101.55 13.7541 101.587 13.8283C101.624 13.884 101.642 13.9768 101.642 14.2367C101.642 14.4223 101.624 14.5708 101.568 14.645C101.531 14.7193 101.475 14.7193 101.438 14.7193C101.401 14.7193 101.345 14.7193 101.308 14.6264C101.29 14.5708 101.253 14.478 101.253 14.2367ZM85.2341 4.43619L84.7701 5.29002C84.7144 5.40139 84.6773 5.47564 84.6587 5.53132C84.6402 5.58701 84.6402 5.64269 84.6402 5.69838C84.6402 5.84687 84.6958 5.9768 84.8072 6.08817C84.9186 6.19954 85.0671 6.25522 85.2341 6.25522C85.4012 6.25522 85.5311 6.19954 85.6425 6.08817C85.7539 5.9768 85.8095 5.84687 85.8095 5.69838C85.8095 5.53132 85.7539 5.40139 85.6425 5.29002C85.5497 5.21578 85.4569 5.16009 85.3455 5.14153L85.6239 4.62181L85.2341 4.43619ZM85.3826 5.69838C85.3826 5.7355 85.3641 5.77262 85.3455 5.80974C85.2898 5.86543 85.197 5.86543 85.1413 5.80974C85.1042 5.77262 85.1042 5.75406 85.1042 5.69838C85.1042 5.66125 85.1228 5.62413 85.1413 5.58701C85.1599 5.56845 85.197 5.54988 85.2341 5.54988C85.2713 5.54988 85.3084 5.56845 85.3455 5.58701C85.3641 5.60557 85.3826 5.64269 85.3826 5.69838ZM85.3826 10.2274C85.4197 10.1903 85.4383 10.1531 85.4383 10.116C85.4383 10.0603 85.4197 10.0232 85.3641 9.98608C85.3084 9.94896 85.2341 9.93039 85.1228 9.93039H85.0485V9.5406H85.1042C85.197 9.5406 85.2341 9.52204 85.2527 9.50348C85.2713 9.48492 85.2898 9.48492 85.3084 9.4478C85.3269 9.42923 85.3269 9.41067 85.3269 9.39211C85.3269 9.37355 85.3269 9.35499 85.3084 9.33643C85.2898 9.31786 85.2713 9.31787 85.2341 9.31787C85.197 9.31787 85.1784 9.31786 85.1599 9.33643C85.1413 9.35499 85.1228 9.37355 85.1042 9.41067L85.0856 9.4478H84.6587L84.6773 9.37355C84.6958 9.24362 84.7515 9.13225 84.8258 9.058C84.9371 8.94664 85.0856 8.89095 85.2527 8.89095C85.4012 8.89095 85.5311 8.94664 85.6425 9.03944C85.7539 9.13225 85.8095 9.24362 85.8095 9.37355C85.8095 9.46636 85.791 9.5406 85.7353 9.59629C85.7167 9.63341 85.6796 9.67053 85.6425 9.68909C85.6982 9.72622 85.7539 9.76334 85.791 9.81903C85.8652 9.89327 85.8838 10.0046 85.8838 10.116C85.8838 10.2831 85.8281 10.413 85.6982 10.5244C85.5682 10.6357 85.4197 10.6914 85.2341 10.6914C85.0485 10.6914 84.9 10.6357 84.7887 10.5244C84.6773 10.413 84.603 10.2831 84.603 10.0974V10.0232H85.0485V10.0789C85.0671 10.1531 85.0856 10.1903 85.1228 10.2274C85.1784 10.3016 85.3084 10.3016 85.3826 10.2274ZM89.2434 2.96984C89.2805 2.91415 89.2991 2.85847 89.2991 2.80278C89.2991 2.76566 89.2805 2.72854 89.262 2.69142C89.2063 2.63573 89.0949 2.63573 89.0207 2.70998C88.9836 2.7471 88.965 2.80278 88.965 2.85847V2.91415H88.5195V2.83991C88.5195 2.65429 88.5938 2.5058 88.7051 2.39443C88.8165 2.28306 88.965 2.22738 89.1506 2.22738C89.262 2.22738 89.3733 2.24594 89.4476 2.30162C89.5404 2.33875 89.6146 2.41299 89.6518 2.5058C89.7074 2.59861 89.726 2.67285 89.726 2.76566C89.726 2.87703 89.6889 2.9884 89.6332 3.09977C89.5775 3.21114 89.4661 3.34107 89.3177 3.50812L89.2434 3.58237H89.7446V3.99072H88.4638V3.74942L89.0021 3.2297C89.132 3.11833 89.2063 3.02552 89.2434 2.96984ZM89.6332 8.85383L89.1692 9.70766C89.1135 9.81903 89.0764 9.89327 89.0578 9.94896C89.0392 10.0046 89.0392 10.0603 89.0392 10.116C89.0392 10.2645 89.0949 10.3944 89.2063 10.5058C89.3177 10.6172 89.4661 10.6729 89.6332 10.6729C89.8003 10.6729 89.9302 10.6172 90.0416 10.5058C90.1529 10.3944 90.2086 10.2645 90.2086 10.116C90.2086 9.94896 90.1529 9.81903 90.0416 9.70766C89.9487 9.63341 89.8559 9.57773 89.7446 9.55916L90.023 9.03944L89.6332 8.85383ZM89.7817 10.116C89.7817 10.1531 89.7631 10.1903 89.7446 10.2274C89.6889 10.2831 89.5961 10.2831 89.5404 10.2274C89.5033 10.1903 89.5033 10.1717 89.5033 10.116C89.5033 10.0789 89.5218 10.0418 89.5404 10.0046C89.559 9.98608 89.5961 9.96752 89.6332 9.96752C89.6703 9.96752 89.7074 9.98608 89.7446 10.0046C89.7631 10.0418 89.7817 10.0789 89.7817 10.116ZM89.132 17.7262L88.668 18.58C88.6123 18.6914 88.5752 18.7657 88.5566 18.8213C88.5381 18.877 88.5381 18.9327 88.5381 18.9884C88.5381 19.1369 88.5938 19.2668 88.7051 19.3782C88.8165 19.4896 88.965 19.5452 89.132 19.5452C89.2991 19.5452 89.429 19.4896 89.5404 19.3782C89.6518 19.2668 89.7074 19.1369 89.7074 18.9884C89.7074 18.8213 89.6518 18.6914 89.5404 18.58C89.4476 18.5058 89.3548 18.4501 89.2434 18.4316L89.5218 17.9118L89.132 17.7262ZM89.262 18.9884C89.262 19.0255 89.2434 19.0626 89.2249 19.0998C89.1692 19.1555 89.0764 19.1555 89.0207 19.0998C88.9836 19.0626 88.9835 19.0441 88.9835 18.9884C88.9835 18.9513 89.0021 18.9142 89.0207 18.877C89.0392 18.8585 89.0764 18.8399 89.1135 18.8399C89.1506 18.8399 89.1877 18.8585 89.2249 18.877C89.262 18.8956 89.262 18.9327 89.262 18.9884ZM84.6773 14.7378C84.733 14.8677 84.8072 14.9606 84.9 15.0162C84.9928 15.0719 85.1228 15.109 85.2527 15.109C85.4012 15.109 85.5126 15.0719 85.6054 15.0162C85.6982 14.9606 85.7724 14.8492 85.8281 14.7193C85.8467 14.6636 85.8652 14.6079 85.8838 14.5336V14.7378H86.6077V15.0719H87.0532V14.7378H87.2016V14.3295H87.0532V13.3086H86.6262L85.9023 14.348C85.9023 14.3109 85.9023 14.2552 85.9023 14.2181C85.9023 13.9954 85.8838 13.8283 85.8281 13.6984C85.7724 13.5684 85.6982 13.4756 85.6054 13.4014C85.5126 13.3457 85.3826 13.3086 85.2527 13.3086C85.0485 13.3086 84.8815 13.3828 84.7515 13.5499C84.6402 13.6984 84.603 13.9211 84.603 14.2181C84.603 14.4594 84.6216 14.6264 84.6773 14.7378ZM86.4221 14.348L86.6077 14.0882V14.348H86.4221ZM85.0485 14.2367C85.0485 14.0882 85.0671 13.9768 85.0856 13.9026C85.1042 13.8283 85.1228 13.7912 85.1599 13.7726C85.1784 13.7541 85.2156 13.7355 85.2527 13.7355C85.2898 13.7355 85.3455 13.7541 85.3826 13.8283C85.4197 13.884 85.4383 13.9768 85.4383 14.2367C85.4383 14.4223 85.4197 14.5708 85.3641 14.645C85.3269 14.7193 85.2713 14.7193 85.2341 14.7193C85.197 14.7193 85.1413 14.7193 85.1042 14.6264C85.0856 14.5708 85.0485 14.478 85.0485 14.2367ZM88.9835 11.0812L88.5195 11.935C88.4638 12.0464 88.4267 12.1206 88.4081 12.1763C88.3896 12.232 88.3896 12.2877 88.3896 12.3434C88.3896 12.4919 88.4453 12.6218 88.5566 12.7332C88.668 12.8445 88.8165 12.9002 88.9835 12.9002C89.1506 12.9002 89.2805 12.8445 89.3919 12.7332C89.5033 12.6218 89.559 12.4919 89.559 12.3434C89.559 12.1763 89.5033 12.0464 89.3919 11.935C89.2991 11.8608 89.2063 11.8051 89.0949 11.7865L89.3733 11.2668L88.9835 11.0812ZM89.132 12.3434C89.132 12.3805 89.1135 12.4176 89.0949 12.4548C89.0392 12.5104 88.9464 12.5104 88.8907 12.4548C88.8536 12.4176 88.8536 12.3991 88.8536 12.3434C88.8536 12.3063 88.8722 12.2691 88.8907 12.232C88.9093 12.2135 88.9464 12.1949 88.9835 12.1949C89.0207 12.1949 89.0578 12.2135 89.0949 12.232C89.1135 12.2506 89.132 12.2877 89.132 12.3434ZM87.8513 8.50116L88.3153 7.64733C88.371 7.53596 88.4081 7.46172 88.4267 7.40603C88.4453 7.35035 88.4453 7.29466 88.4453 7.23898C88.4453 7.09049 88.3896 6.96056 88.2782 6.84919C88.1668 6.73782 88.0183 6.68213 87.8513 6.68213C87.6842 6.68213 87.5543 6.73782 87.4429 6.84919C87.3316 6.96056 87.2759 7.09049 87.2759 7.25754C87.2759 7.42459 87.3316 7.55452 87.4429 7.66589C87.5358 7.7587 87.6286 7.79582 87.7399 7.81438L87.4615 8.33411L87.8513 8.50116ZM87.7028 7.23898C87.7028 7.20186 87.7214 7.16473 87.7399 7.12761C87.7771 7.09049 87.7956 7.09049 87.8513 7.09049C87.8884 7.09049 87.9255 7.10905 87.9441 7.12761C87.9812 7.16473 87.9812 7.18329 87.9812 7.23898C87.9812 7.2761 87.9627 7.31322 87.9441 7.35035C87.8884 7.40603 87.7956 7.40603 87.7399 7.35035C87.7214 7.31322 87.7028 7.2761 87.7028 7.23898ZM95.7585 8.01856C95.7956 7.98144 95.8142 7.94431 95.8142 7.90719C95.8142 7.85151 95.7956 7.81438 95.7399 7.77726C95.6842 7.74014 95.61 7.72158 95.4986 7.72158H95.4244V7.33179H95.4801C95.5729 7.33179 95.61 7.31322 95.6286 7.29466C95.6471 7.2761 95.6657 7.2761 95.6842 7.23898C95.7028 7.22042 95.7028 7.20186 95.7028 7.18329C95.7028 7.16473 95.7028 7.14617 95.6842 7.12761C95.6657 7.10905 95.6471 7.10905 95.61 7.10905C95.5729 7.10905 95.5543 7.10905 95.5358 7.12761C95.5172 7.14617 95.4986 7.16473 95.4801 7.20186L95.4615 7.23898H95.0346L95.0531 7.16473C95.0717 7.0348 95.1274 6.92343 95.2016 6.84919C95.313 6.73782 95.4615 6.68213 95.6286 6.68213C95.7771 6.68213 95.907 6.73782 96.0183 6.83063C96.1297 6.92343 96.1854 7.0348 96.1854 7.16473C96.1854 7.23898 96.1668 7.33179 96.1112 7.38747C96.0926 7.42459 96.0555 7.46172 96.0183 7.48028C96.074 7.5174 96.1297 7.55452 96.1668 7.61021C96.2411 7.70302 96.2596 7.79582 96.2596 7.90719C96.2596 8.07425 96.204 8.20418 96.074 8.31555C95.9441 8.42691 95.7956 8.4826 95.61 8.4826C95.4244 8.4826 95.2759 8.42691 95.1645 8.33411C95.0532 8.22274 94.9789 8.09281 94.9789 7.90719V7.83295H95.4244V7.88863C95.4429 7.96288 95.4615 8 95.4986 8.03712C95.5543 8.07425 95.6842 8.07425 95.7585 8.01856ZM85.9023 5.69838C85.9023 5.80974 85.9209 5.90255 85.9766 5.99536C86.0323 6.08817 86.1065 6.14385 86.1993 6.19954C86.2921 6.23666 86.4035 6.25522 86.552 6.25522C86.6819 6.25522 86.7933 6.23666 86.8861 6.18097C86.9789 6.14385 87.0532 6.06961 87.1088 5.9768C87.1645 5.88399 87.1831 5.79118 87.1831 5.69838C87.1831 5.60557 87.1645 5.51276 87.1088 5.43851C87.0717 5.38283 87.0346 5.32715 86.9789 5.29002C87.016 5.2529 87.0532 5.19722 87.0717 5.16009C87.0903 5.10441 87.1088 5.04872 87.1088 4.97448C87.1088 4.88167 87.0903 4.78886 87.0346 4.71462C86.9789 4.64037 86.9232 4.56612 86.8304 4.529C86.6634 4.43619 86.4221 4.43619 86.255 4.529C86.1622 4.56612 86.1065 4.64037 86.0508 4.71462C85.9952 4.78886 85.9766 4.88167 85.9766 4.97448C85.9766 5.04872 85.9951 5.10441 86.0137 5.17865C86.0323 5.21578 86.0508 5.2529 86.088 5.29002C86.0323 5.34571 85.9952 5.40139 85.958 5.45708C85.9209 5.51276 85.9023 5.60557 85.9023 5.69838ZM86.6262 5.06729C86.5891 5.10441 86.5149 5.10441 86.4592 5.06729C86.4406 5.04872 86.4221 5.0116 86.4221 4.97448C86.4221 4.93735 86.4406 4.91879 86.4592 4.90023C86.4777 4.88167 86.4963 4.86311 86.5334 4.86311C86.5706 4.86311 86.6077 4.88167 86.6262 4.90023C86.6448 4.91879 86.6634 4.93735 86.6634 4.97448C86.6634 5.0116 86.6448 5.04872 86.6262 5.06729ZM86.552 5.51276C86.6077 5.51276 86.6634 5.53132 86.7005 5.56845C86.7376 5.60557 86.7562 5.64269 86.7562 5.67981C86.7562 5.7355 86.7376 5.77262 86.7005 5.79118C86.6262 5.84687 86.4777 5.84687 86.4035 5.79118C86.3664 5.75406 86.3478 5.71694 86.3478 5.67981C86.3478 5.64269 86.3664 5.60557 86.4035 5.56845C86.4406 5.53132 86.4963 5.51276 86.552 5.51276ZM86.5334 6.64501L86.0694 7.49884C86.0137 7.61021 85.9766 7.68445 85.958 7.74014C85.9395 7.79582 85.9395 7.85151 85.9395 7.90719C85.9395 8.05568 85.9951 8.18561 86.1065 8.29698C86.2179 8.40835 86.3664 8.46404 86.5334 8.46404C86.7005 8.46404 86.8304 8.40835 86.9418 8.29698C87.0532 8.18561 87.1088 8.05568 87.1088 7.90719C87.1088 7.74014 87.0532 7.61021 86.9418 7.49884C86.849 7.42459 86.7562 7.36891 86.6448 7.35035L86.9232 6.83063L86.5334 6.64501ZM86.6819 7.90719C86.6819 7.94431 86.6634 7.98144 86.6448 8.01856C86.5891 8.07425 86.4963 8.07425 86.4406 8.01856C86.4035 7.98144 86.4035 7.96288 86.4035 7.90719C86.4035 7.87007 86.4221 7.83295 86.4406 7.79582C86.4592 7.77726 86.4963 7.7587 86.5334 7.7587C86.5706 7.7587 86.6077 7.77726 86.6448 7.79582C86.6634 7.83295 86.6819 7.85151 86.6819 7.90719ZM87.9441 14.051C87.9812 13.9954 87.9998 13.9397 87.9998 13.884C87.9998 13.8469 87.9812 13.8097 87.9627 13.7726C87.907 13.7169 87.7956 13.7169 87.7214 13.7912C87.6842 13.8283 87.6657 13.884 87.6657 13.9397V13.9954H87.2202V13.9211C87.2202 13.7355 87.2945 13.587 87.4058 13.4756C87.5172 13.3643 87.6657 13.3086 87.8513 13.3086C87.9627 13.3086 88.0555 13.3271 88.1483 13.3828C88.2411 13.42 88.3153 13.4942 88.3525 13.587C88.4081 13.6798 88.4267 13.7541 88.4267 13.8469C88.4267 13.9582 88.3896 14.0696 88.3339 14.181C88.2782 14.2923 88.1668 14.4223 88.0184 14.5893L87.9441 14.6636H88.4453V15.0719H87.1645V14.8492L87.7028 14.3295C87.8327 14.1995 87.907 14.1067 87.9441 14.051ZM87.8327 4.43619L87.3687 5.29002C87.313 5.40139 87.2759 5.47564 87.2573 5.53132C87.2388 5.58701 87.2388 5.64269 87.2388 5.69838C87.2388 5.84687 87.2945 5.9768 87.4058 6.08817C87.5172 6.19954 87.6657 6.25522 87.8327 6.25522C87.9998 6.25522 88.1297 6.19954 88.2411 6.08817C88.3525 5.9768 88.4081 5.84687 88.4081 5.69838C88.4081 5.53132 88.3525 5.40139 88.2411 5.29002C88.1483 5.21578 88.0555 5.16009 87.9441 5.14153L88.2225 4.62181L87.8327 4.43619ZM87.9812 5.69838C87.9812 5.7355 87.9627 5.77262 87.9441 5.80974C87.8884 5.86543 87.7956 5.86543 87.7399 5.80974C87.7028 5.77262 87.7028 5.75406 87.7028 5.69838C87.7028 5.66125 87.7214 5.62413 87.7399 5.58701C87.7585 5.56845 87.7956 5.54988 87.8327 5.54988C87.8699 5.54988 87.907 5.56845 87.9441 5.58701C87.9627 5.60557 87.9812 5.64269 87.9812 5.69838ZM86.0137 12.7517L86.6262 11.5638H85.9766V11.1369H87.2016V11.3968L86.4221 12.9188L86.0137 12.7517ZM87.2388 9.7819C87.2388 9.61485 87.2759 9.46636 87.3687 9.31787C87.4429 9.18793 87.5729 9.07657 87.7214 9.00232C87.9998 8.85383 88.3339 8.83527 88.6309 8.9652C88.7608 9.02088 88.8907 9.11369 88.9835 9.22506L89.0207 9.28074L88.7051 9.57773L88.6494 9.52204C88.5195 9.37355 88.3525 9.31787 88.1854 9.31787C88.0369 9.31787 87.9255 9.35499 87.8327 9.4478C87.7399 9.5406 87.6842 9.65197 87.6842 9.7819C87.6842 9.87471 87.7028 9.96752 87.7399 10.0418C87.7771 10.116 87.8327 10.1717 87.9255 10.2088C88.074 10.2831 88.2596 10.2831 88.4081 10.2274C88.4824 10.1903 88.5566 10.1346 88.6309 10.0603L88.6866 10.0232L89.0021 10.3387L88.9464 10.3759C88.8165 10.5058 88.6866 10.58 88.5752 10.6357C88.4638 10.6914 88.3153 10.71 88.1668 10.71C87.8884 10.71 87.6657 10.6172 87.4801 10.4501C87.3316 10.2645 87.2388 10.0418 87.2388 9.7819ZM89.1877 15.0719H89.6332V14.7378H89.7817V14.3295H89.6332V13.3086H89.2063L88.4638 14.3666L88.4453 14.3851V14.7564H89.1692V15.0719H89.1877ZM89.0207 14.348L89.2063 14.0882V14.348H89.0207ZM86.1065 10.5244C86.2179 10.6357 86.3664 10.6914 86.5334 10.6914C86.7005 10.6914 86.8304 10.6357 86.9418 10.5244C87.0532 10.413 87.1088 10.2831 87.1088 10.1346C87.1088 9.96752 87.0532 9.83759 86.9418 9.72622C86.849 9.65197 86.7562 9.59629 86.6448 9.57773L86.9232 9.058L86.5334 8.87239L86.0694 9.72622C86.0137 9.83759 85.9766 9.91183 85.958 9.96752C85.9395 10.0232 85.9395 10.0789 85.9395 10.1346C85.9395 10.2831 85.9951 10.413 86.1065 10.5244ZM86.3849 10.116C86.3849 10.0789 86.4035 10.0418 86.4221 10.0046C86.4406 9.98608 86.4778 9.96752 86.5149 9.96752C86.552 9.96752 86.5891 9.98608 86.6262 10.0046C86.6634 10.0418 86.6634 10.0603 86.6634 10.116C86.6634 10.1531 86.6448 10.1903 86.6262 10.2274C86.5706 10.2831 86.4778 10.2831 86.4221 10.2274C86.4035 10.2088 86.3849 10.1717 86.3849 10.116ZM88.7979 17.2622C88.8907 17.2993 89.0021 17.3179 89.1506 17.3179C89.2805 17.3179 89.3919 17.2993 89.4847 17.2436C89.5775 17.2065 89.6518 17.1322 89.7074 17.0394C89.7631 16.9466 89.7817 16.8538 89.7817 16.761C89.7817 16.6682 89.7631 16.5754 89.7074 16.5012C89.6703 16.4455 89.6332 16.3898 89.5775 16.3527C89.6146 16.3155 89.6518 16.2599 89.6703 16.2227C89.6889 16.1671 89.7074 16.1114 89.7074 16.0371C89.7074 15.9443 89.6889 15.8515 89.6332 15.7773C89.5775 15.703 89.5218 15.6288 89.429 15.5916C89.262 15.4988 89.0207 15.4988 88.8536 15.5916C88.7608 15.6288 88.7051 15.703 88.6494 15.7773C88.5938 15.8515 88.5752 15.9443 88.5752 16.0371C88.5752 16.1114 88.5938 16.1671 88.6123 16.2413C88.6309 16.2784 88.6494 16.3155 88.6866 16.3527C88.6309 16.4084 88.5938 16.464 88.5566 16.5197C88.5195 16.594 88.5009 16.6868 88.5009 16.7796C88.5009 16.891 88.5195 16.9838 88.5752 17.0766C88.6309 17.1694 88.7051 17.2251 88.7979 17.2622ZM89.2249 16.1485C89.1877 16.1856 89.1135 16.1856 89.0578 16.1485C89.0392 16.1299 89.0207 16.0928 89.0207 16.0742C89.0207 16.0371 89.0392 16.0186 89.0578 16C89.0764 15.9814 89.0949 15.9629 89.132 15.9629C89.1692 15.9629 89.2063 15.9629 89.2249 16C89.2434 16.0186 89.262 16.0371 89.262 16.0742C89.2434 16.0928 89.2434 16.1299 89.2249 16.1485ZM89.132 16.594C89.1877 16.594 89.2434 16.6125 89.2805 16.6497C89.3177 16.6868 89.3362 16.7239 89.3362 16.761C89.3362 16.8167 89.3177 16.8353 89.2805 16.8724C89.2063 16.9281 89.0578 16.9281 88.9835 16.8724C88.9464 16.8353 88.9279 16.7981 88.9279 16.761C88.9279 16.7239 88.9464 16.6868 88.9835 16.6497C89.0392 16.6125 89.0764 16.594 89.132 16.594ZM87.4986 19.4524C87.5914 19.5081 87.7214 19.5452 87.8513 19.5452C87.9998 19.5452 88.1112 19.5081 88.204 19.4524C88.2968 19.3968 88.371 19.2854 88.4267 19.1555C88.4824 19.0255 88.5009 18.8585 88.5009 18.6357C88.5009 18.413 88.4824 18.2459 88.4267 18.116C88.371 17.9861 88.2968 17.8933 88.204 17.819C88.1112 17.7633 87.9812 17.7262 87.8513 17.7262C87.6471 17.7262 87.4801 17.8005 87.3501 17.9675C87.2388 18.116 87.2016 18.3387 87.2016 18.6357C87.2016 18.8585 87.2202 19.0255 87.2759 19.1369C87.313 19.3039 87.3873 19.3968 87.4986 19.4524ZM87.6471 18.6729C87.6471 18.5244 87.6657 18.413 87.6842 18.3387C87.7028 18.2645 87.7214 18.2274 87.7585 18.2088C87.7956 18.1903 87.8142 18.1717 87.8513 18.1717C87.8884 18.1717 87.9441 18.1903 87.9812 18.2645C88.0184 18.3202 88.0369 18.413 88.0369 18.6729C88.0369 18.8585 88.0184 19.007 87.9627 19.0812C87.9255 19.1555 87.8699 19.1555 87.8327 19.1555C87.7956 19.1555 87.7399 19.1555 87.7028 19.0626C87.6842 19.007 87.6471 18.9142 87.6471 18.6729ZM84.6773 8.09281C84.733 8.22274 84.8072 8.31554 84.9 8.37123C84.9928 8.42691 85.1228 8.46404 85.2527 8.46404C85.4012 8.46404 85.5126 8.42691 85.6054 8.37123C85.6982 8.31554 85.7724 8.20418 85.8281 8.07425C85.8838 7.94431 85.9023 7.77726 85.9023 7.55452C85.9023 7.33179 85.8838 7.16473 85.8281 7.0348C85.7724 6.90487 85.6982 6.81206 85.6054 6.73782C85.5126 6.68213 85.3826 6.64501 85.2527 6.64501C85.0485 6.64501 84.8815 6.71926 84.7515 6.88631C84.6402 7.0348 84.603 7.25754 84.603 7.55452C84.603 7.81438 84.6216 7.98144 84.6773 8.09281ZM85.0485 7.59165C85.0485 7.44316 85.0671 7.33179 85.0856 7.25754C85.1042 7.18329 85.1228 7.14617 85.1599 7.12761C85.1784 7.10905 85.2156 7.09049 85.2527 7.09049C85.2898 7.09049 85.3455 7.10905 85.3826 7.18329C85.4197 7.23898 85.4383 7.33179 85.4383 7.59165C85.4383 7.77726 85.4197 7.92575 85.3641 8C85.3269 8.07425 85.2713 8.07425 85.2341 8.07425C85.197 8.07425 85.1413 8.07425 85.1042 7.98144C85.0856 7.92575 85.0485 7.83295 85.0485 7.59165ZM84.6773 12.529C84.733 12.6589 84.8072 12.7517 84.9 12.8074C84.9928 12.8631 85.1228 12.9002 85.2527 12.9002C85.4012 12.9002 85.5126 12.8631 85.6054 12.8074C85.6982 12.7517 85.7724 12.6404 85.8281 12.5104C85.8838 12.3805 85.9023 12.2135 85.9023 11.9907C85.9023 11.768 85.8838 11.6009 85.8281 11.471C85.7724 11.3411 85.6982 11.2483 85.6054 11.174C85.5126 11.1183 85.3826 11.0812 85.2527 11.0812C85.0485 11.0812 84.8815 11.1555 84.7515 11.3225C84.6402 11.471 84.603 11.6937 84.603 11.9907C84.603 12.232 84.6216 12.3991 84.6773 12.529ZM85.0485 12.0278C85.0485 11.8794 85.0671 11.768 85.0856 11.6937C85.1042 11.6195 85.1228 11.5824 85.1599 11.5638C85.1784 11.5452 85.2156 11.5267 85.2527 11.5267C85.2898 11.5267 85.3455 11.5452 85.3826 11.6195C85.4197 11.6752 85.4383 11.768 85.4383 12.0278C85.4383 12.2135 85.4197 12.3619 85.3641 12.4362C85.3269 12.5104 85.2713 12.5104 85.2341 12.5104C85.197 12.5104 85.1413 12.5104 85.1042 12.4176C85.0856 12.3619 85.0485 12.2506 85.0485 12.0278ZM89.1506 6.27378L89.6146 5.41995C89.6703 5.30858 89.7074 5.23434 89.726 5.17865C89.7446 5.12297 89.7446 5.06729 89.7446 5.0116C89.7446 4.86311 89.6889 4.73318 89.5775 4.62181C89.4661 4.51044 89.3177 4.45476 89.1506 4.45476C88.9835 4.45476 88.8536 4.51044 88.7423 4.62181C88.6309 4.73318 88.5752 4.86311 88.5752 5.03016C88.5752 5.19722 88.6309 5.32715 88.7423 5.43851C88.8351 5.53132 88.9279 5.56845 89.0392 5.58701L88.7608 6.10673L89.1506 6.27378ZM89.0021 5.0116C89.0021 4.97448 89.0207 4.93735 89.0392 4.90023C89.0764 4.86311 89.0949 4.86311 89.1506 4.86311C89.1877 4.86311 89.2248 4.88167 89.2434 4.90023C89.2805 4.93735 89.2805 4.95592 89.2805 5.0116C89.2805 5.04872 89.262 5.08585 89.2434 5.12297C89.1877 5.17865 89.0949 5.17865 89.0392 5.12297C89.0207 5.10441 89.0021 5.06729 89.0021 5.0116ZM87.313 12.7517L87.9255 11.5638H87.2759V11.1369H88.5009V11.3968L87.7214 12.9188L87.313 12.7517ZM88.5566 6.7007H89.7817V6.96056L89.0021 8.50116L88.6123 8.31555L89.2249 7.12761H88.5752V6.7007H88.5566ZM87.1645 19.5081H85.8838V19.2668L86.4221 18.7471C86.5334 18.6357 86.6262 18.5429 86.6634 18.4687C86.7005 18.413 86.7191 18.3573 86.7191 18.3016C86.7191 18.2645 86.7005 18.2274 86.6819 18.1903C86.6262 18.1346 86.5149 18.1346 86.4406 18.2088C86.4035 18.2459 86.3849 18.3016 86.3849 18.3573V18.413H85.9395V18.3387C85.9395 18.1531 86.0137 18.0046 86.1251 17.8933C86.2364 17.7819 86.3849 17.7262 86.5706 17.7262C86.6819 17.7262 86.7933 17.7448 86.8675 17.8005C86.9603 17.8376 87.0346 17.9118 87.0717 18.0046C87.1274 18.0974 87.146 18.1717 87.146 18.2645C87.146 18.3759 87.1088 18.4872 87.0532 18.5986C86.9975 18.71 86.8861 18.8399 86.7376 19.007L86.6634 19.0812H87.1645V19.5081ZM87.1831 15.8329L86.4035 17.355L86.0137 17.1694L86.6262 15.9814H85.9766V15.5731H87.2016L87.1831 15.8329ZM87.8327 15.5174L87.3687 16.3712C87.313 16.4826 87.2759 16.5568 87.2573 16.6125C87.2388 16.6682 87.2388 16.7239 87.2388 16.7796C87.2388 16.9281 87.2945 17.058 87.4058 17.1694C87.5172 17.2807 87.6657 17.3364 87.8327 17.3364C87.9998 17.3364 88.1297 17.2807 88.2411 17.1694C88.3525 17.058 88.4081 16.9281 88.4081 16.7796C88.4081 16.6125 88.3525 16.4826 88.2411 16.3712C88.1483 16.2784 88.0555 16.2413 87.9441 16.2227L88.2225 15.703L87.8327 15.5174ZM87.9812 16.761C87.9812 16.7981 87.9627 16.8353 87.9441 16.8724C87.8884 16.9281 87.7956 16.9281 87.7399 16.8724C87.7028 16.8353 87.7028 16.8167 87.7028 16.761C87.7028 16.7239 87.7214 16.6868 87.7399 16.6497C87.7585 16.6311 87.7956 16.6125 87.8327 16.6125C87.8699 16.6125 87.907 16.6311 87.9441 16.6497C87.9627 16.6868 87.9812 16.7239 87.9812 16.761ZM85.8652 3.99072H84.5845V3.74942L85.1228 3.2297C85.2341 3.11833 85.3269 3.02552 85.3641 2.95128C85.4012 2.89559 85.4197 2.83991 85.4197 2.78422C85.4197 2.7471 85.4012 2.70998 85.3826 2.67285C85.3269 2.61717 85.2156 2.61717 85.1413 2.69142C85.1042 2.72854 85.0856 2.78422 85.0856 2.83991V2.89559H84.6402V2.82135C84.6402 2.63573 84.7144 2.48724 84.8258 2.37587C84.9371 2.2645 85.0856 2.20882 85.2713 2.20882C85.3826 2.20882 85.494 2.22738 85.5682 2.28306C85.661 2.32019 85.7353 2.39443 85.7724 2.48724C85.8281 2.58005 85.8467 2.65429 85.8467 2.7471C85.8467 2.85847 85.8095 2.96984 85.7539 3.08121C85.6982 3.19258 85.5868 3.32251 85.4383 3.48956L85.3641 3.56381H85.8652V3.99072ZM86.6262 0.482599H85.9766V0.0556845H87.2016V0.315545L86.4221 1.85615L86.0323 1.67053L86.6262 0.482599ZM85.3269 0.482599H84.6773V0.0556845H85.9023V0.315545L85.1228 1.85615L84.733 1.67053L85.3269 0.482599ZM86.088 21.6056C85.9766 21.4942 85.9023 21.3643 85.9023 21.1787V21.1044H86.3478V21.1601C86.3664 21.2343 86.3849 21.2715 86.4221 21.3086C86.4963 21.3643 86.6077 21.3643 86.6819 21.3086C86.719 21.2715 86.7376 21.2343 86.7376 21.1972C86.7376 21.1415 86.719 21.1044 86.6634 21.0673C86.6077 21.0302 86.5334 21.0116 86.4221 21.0116H86.3478V20.6032H86.4035C86.4963 20.6032 86.5334 20.5847 86.552 20.5661C86.5706 20.5476 86.5891 20.5476 86.6077 20.5104C86.6262 20.4919 86.6262 20.4733 86.6262 20.4548C86.6262 20.4362 86.6262 20.4176 86.6077 20.3991C86.5891 20.3805 86.5706 20.3805 86.5334 20.3805C86.4963 20.3805 86.4777 20.3805 86.4592 20.3991C86.4406 20.4176 86.4221 20.4362 86.4035 20.4733L86.3849 20.5104H85.958L85.9766 20.4362C85.9952 20.3063 86.0508 20.1949 86.1251 20.1206C86.2364 20.0093 86.3849 19.9536 86.552 19.9536C86.7005 19.9536 86.8304 20.0093 86.9418 20.1021C87.0532 20.1949 87.1088 20.3063 87.1088 20.4362C87.1088 20.5104 87.0903 20.6032 87.0346 20.6589C87.016 20.6961 86.9789 20.7332 86.9418 20.7517C86.9975 20.7889 87.0532 20.826 87.0903 20.8817C87.1645 20.9559 87.1831 21.0673 87.1831 21.1787C87.1831 21.3457 87.1274 21.4756 86.9975 21.587C86.8675 21.6984 86.7191 21.7541 86.5334 21.7541C86.3478 21.7726 86.1993 21.7169 86.088 21.6056ZM85.2341 21.7726C85.4012 21.7726 85.5311 21.7169 85.6425 21.6056C85.7539 21.4942 85.8095 21.3643 85.8095 21.2158C85.8095 21.0487 85.7539 20.9188 85.6425 20.8074C85.5497 20.7146 85.4569 20.6775 85.3455 20.6589L85.6239 20.1392L85.2341 19.9536L84.7701 20.8074C84.7144 20.9188 84.6773 20.993 84.6587 21.0487C84.6402 21.1044 84.6402 21.1601 84.6402 21.2158C84.6402 21.3643 84.6958 21.4942 84.8072 21.6056C84.9186 21.7169 85.0671 21.7726 85.2341 21.7726ZM85.0856 21.1972C85.0856 21.1601 85.1042 21.123 85.1228 21.0858C85.1413 21.0673 85.1784 21.0487 85.2156 21.0487C85.2527 21.0487 85.2898 21.0673 85.3269 21.0858C85.3641 21.123 85.3641 21.1415 85.3641 21.1972C85.3641 21.2343 85.3455 21.2715 85.3269 21.3086C85.2713 21.3643 85.1784 21.3643 85.1228 21.3086C85.1042 21.2715 85.0856 21.2529 85.0856 21.1972ZM84.6773 22.2181H85.9023V22.478L85.1228 24.0186L84.733 23.8329L85.3455 22.645H84.6958V22.2181H84.6773ZM87.7214 1.81903C87.8884 1.81903 88.0183 1.76334 88.1297 1.65197C88.2411 1.5406 88.2968 1.41067 88.2968 1.26218C88.2968 1.09513 88.2411 0.965197 88.1297 0.853828C88.0369 0.761021 87.9441 0.723898 87.8327 0.705336L88.1112 0.185615L87.7214 0L87.2573 0.853828C87.2016 0.965197 87.1645 1.03944 87.146 1.09513C87.1274 1.15081 87.1274 1.2065 87.1274 1.26218C87.1274 1.41067 87.1831 1.5406 87.2945 1.65197C87.4058 1.76334 87.5543 1.81903 87.7214 1.81903ZM87.5729 1.26218C87.5729 1.22506 87.5914 1.18793 87.61 1.15081C87.6286 1.13225 87.6657 1.11369 87.7028 1.11369C87.7399 1.11369 87.7771 1.13225 87.8142 1.15081C87.8513 1.18793 87.8513 1.2065 87.8513 1.26218C87.8513 1.2993 87.8327 1.33643 87.8142 1.37355C87.7585 1.42923 87.6657 1.42923 87.61 1.37355C87.5914 1.33643 87.5729 1.2993 87.5729 1.26218ZM84.8072 19.4153C84.6958 19.3225 84.6216 19.2111 84.5845 19.0626L84.5659 18.9884H85.03L85.0485 19.0255C85.0671 19.0626 85.0856 19.0998 85.1228 19.1183C85.197 19.1555 85.2898 19.1555 85.3455 19.0998C85.3826 19.0626 85.4012 19.0255 85.4012 18.9513C85.4012 18.8956 85.3826 18.8399 85.3455 18.8213C85.2898 18.7657 85.2341 18.7471 85.1599 18.7842C85.1413 18.8028 85.1042 18.8213 85.0856 18.8399L85.0671 18.8585L84.7144 18.7842L84.9371 17.7819H85.8467V18.1903H85.2898L85.2527 18.3387H85.2713C85.4383 18.3387 85.5868 18.3944 85.6982 18.5058C85.8095 18.6172 85.8652 18.7657 85.8652 18.9327C85.8652 19.0998 85.8095 19.2483 85.6796 19.3782C85.5497 19.4896 85.4012 19.5638 85.2341 19.5638C85.0671 19.5452 84.9186 19.5081 84.8072 19.4153ZM87.1274 2.61717C87.0717 2.48724 86.9975 2.39443 86.9047 2.32019C86.8119 2.2645 86.6819 2.22738 86.552 2.22738C86.3478 2.22738 86.1808 2.30162 86.0508 2.46868C85.9395 2.61717 85.9023 2.83991 85.9023 3.13689C85.9023 3.35963 85.9209 3.52668 85.9766 3.63805C86.0323 3.76798 86.1065 3.86079 86.1993 3.91647C86.2921 3.97216 86.4221 4.00928 86.552 4.00928C86.7005 4.00928 86.8119 3.97216 86.9047 3.91647C86.9975 3.86079 87.0717 3.74942 87.1274 3.61949C87.146 3.5638 87.1645 3.50812 87.1831 3.43387V3.63805H87.907V3.97216H88.3525V3.63805H88.5009V3.2297H88.3525V2.20882H87.9255L87.2016 3.24826C87.2016 3.21114 87.2016 3.15545 87.2016 3.11833C87.2016 2.91415 87.1645 2.7471 87.1274 2.61717ZM86.7376 3.13689C86.7376 3.32251 86.719 3.471 86.6634 3.54524C86.6262 3.61949 86.5706 3.61949 86.5334 3.61949C86.4963 3.61949 86.4406 3.61949 86.4035 3.52668C86.3664 3.48956 86.3293 3.37819 86.3293 3.13689C86.3293 2.9884 86.3478 2.87703 86.3664 2.80278C86.3849 2.72854 86.4035 2.69142 86.4406 2.67285C86.4778 2.65429 86.4963 2.63573 86.5334 2.63573C86.5706 2.63573 86.6262 2.65429 86.6634 2.72854C86.7005 2.78422 86.7376 2.89559 86.7376 3.13689ZM87.7214 3.26682L87.907 3.00696V3.26682H87.7214ZM92.2875 3.56381L92.2689 3.48956H92.733L92.7515 3.52668C92.7701 3.5638 92.7887 3.60093 92.8258 3.61949C92.9 3.65661 92.9928 3.65661 93.0485 3.60093C93.0856 3.5638 93.1042 3.52668 93.1042 3.45244C93.1042 3.39675 93.0856 3.34107 93.0485 3.32251C92.9928 3.26682 92.9371 3.24826 92.8629 3.28538C92.8443 3.30394 92.8072 3.32251 92.7887 3.34107L92.7701 3.35963L92.4174 3.28538L92.6402 2.28306H93.5497V2.69142H92.9928L92.9557 2.83991H92.9743C93.1413 2.83991 93.2898 2.89559 93.4012 3.00696C93.5126 3.11833 93.5682 3.26682 93.5682 3.43387C93.5682 3.60093 93.5126 3.74942 93.3826 3.87935C93.2527 3.99072 93.1042 4.06496 92.9371 4.06496C92.7887 4.06496 92.6402 4.02784 92.5288 3.93503C92.3989 3.82367 92.3246 3.7123 92.2875 3.56381ZM93.1042 0.482599H92.4545V0.0556845H93.6796V0.315545L92.9 1.85615L92.5102 1.67053L93.1042 0.482599ZM91.6193 1.15081L91.3409 1.67053L91.7306 1.85615L92.1947 1.00232C92.2504 0.890951 92.2875 0.816705 92.3061 0.761021C92.3246 0.705336 92.3246 0.649652 92.3246 0.593967C92.3246 0.445476 92.2689 0.315545 92.1576 0.204176C92.0462 0.0928074 91.8977 0.037123 91.7306 0.037123C91.5636 0.037123 91.4337 0.0928074 91.3223 0.204176C91.2109 0.315545 91.1552 0.445476 91.1552 0.612529C91.1552 0.779582 91.2109 0.909513 91.3223 1.02088C91.4151 1.07657 91.5079 1.13225 91.6193 1.15081ZM91.6007 0.593967C91.6007 0.556845 91.6193 0.519722 91.6378 0.482599C91.675 0.445476 91.6935 0.445476 91.7492 0.445476C91.7863 0.445476 91.8235 0.464037 91.842 0.482599C91.8791 0.519722 91.8791 0.556845 91.8791 0.593967C91.8791 0.63109 91.8606 0.668213 91.842 0.705336C91.7863 0.761021 91.6935 0.761021 91.6378 0.705336C91.6193 0.668213 91.6007 0.63109 91.6007 0.593967ZM93.5311 1.09513V1.46636H94.255V1.80046H94.7005V1.46636H94.849V1.03944H94.7005V0.0185615H94.2921L93.5311 1.09513ZM94.088 1.03944L94.2736 0.779582V1.03944H94.088ZM90.5242 1.81903C90.6912 1.81903 90.8211 1.76334 90.9325 1.65197C91.0439 1.5406 91.0996 1.41067 91.0996 1.26218C91.0996 1.09513 91.0439 0.965197 90.9325 0.853828C90.8397 0.761021 90.7469 0.723898 90.6355 0.705336L90.9139 0.185615L90.5242 0L90.0601 0.853828C90.0044 0.965197 89.9673 1.03944 89.9487 1.09513C89.9302 1.15081 89.9302 1.2065 89.9302 1.26218C89.9302 1.41067 89.9859 1.5406 90.0972 1.65197C90.2086 1.76334 90.3571 1.81903 90.5242 1.81903ZM90.3757 1.26218C90.3757 1.22506 90.3942 1.18793 90.4128 1.15081C90.4313 1.13225 90.4685 1.11369 90.5056 1.11369C90.5427 1.11369 90.5798 1.13225 90.617 1.15081C90.6541 1.18793 90.6541 1.2065 90.6541 1.26218C90.6541 1.2993 90.6355 1.33643 90.617 1.37355C90.5613 1.42923 90.4685 1.42923 90.4128 1.37355C90.3942 1.33643 90.3757 1.2993 90.3757 1.26218ZM88.7979 1.76334C88.8907 1.80046 89.0021 1.81903 89.1506 1.81903C89.2805 1.81903 89.3919 1.80046 89.4847 1.74478C89.5775 1.70766 89.6518 1.63341 89.7074 1.5406C89.7631 1.4478 89.7817 1.35499 89.7817 1.26218C89.7817 1.16937 89.7631 1.07657 89.7074 1.00232C89.6703 0.946636 89.6332 0.890951 89.5775 0.853828C89.6146 0.816705 89.6518 0.761021 89.6703 0.723898C89.6889 0.668213 89.7074 0.612529 89.7074 0.538283C89.7074 0.445476 89.6889 0.352668 89.6332 0.278422C89.5775 0.204176 89.5218 0.12993 89.429 0.0928074C89.262 0 89.0207 0 88.8536 0.0928074C88.7608 0.12993 88.7051 0.204176 88.6494 0.278422C88.5938 0.352668 88.5752 0.445476 88.5752 0.538283C88.5752 0.612529 88.5938 0.668213 88.6123 0.742459C88.6309 0.779582 88.6494 0.816705 88.6866 0.853828C88.6309 0.909513 88.5938 0.965197 88.5566 1.02088C88.5195 1.09513 88.5009 1.18793 88.5009 1.28074C88.5009 1.39211 88.5195 1.48492 88.5752 1.57773C88.6309 1.65197 88.7051 1.72622 88.7979 1.76334ZM89.2249 0.63109C89.1877 0.668213 89.1135 0.668213 89.0578 0.63109C89.0392 0.612529 89.0207 0.575406 89.0207 0.556845C89.0207 0.519722 89.0392 0.50116 89.0578 0.482599C89.0764 0.464037 89.0949 0.445476 89.132 0.445476C89.1692 0.445476 89.2063 0.464037 89.2249 0.482599C89.2434 0.50116 89.262 0.519722 89.262 0.556845C89.2434 0.593967 89.2434 0.612529 89.2249 0.63109ZM89.132 1.07657C89.1877 1.07657 89.2434 1.09513 89.2805 1.13225C89.3177 1.16937 89.3362 1.2065 89.3362 1.24362C89.3362 1.2993 89.3177 1.31787 89.2805 1.35499C89.2063 1.41067 89.0578 1.41067 88.9835 1.35499C88.9464 1.31787 88.9279 1.28074 88.9279 1.24362C88.9279 1.2065 88.9464 1.16937 88.9835 1.13225C89.0392 1.09513 89.0764 1.07657 89.132 1.07657ZM90.9325 2.24594H90.5056L89.7631 3.30394L89.7446 3.32251V3.69374H90.4685V4.02784H90.9139V3.69374H91.0624V3.28538H90.9139V2.24594H90.9325ZM90.3014 3.26682L90.487 3.00696V3.26682H90.3014ZM91.6193 3.35963L91.3409 3.87935L91.7306 4.06496L92.1947 3.21114C92.2504 3.09977 92.2875 3.02552 92.3061 2.96984C92.3246 2.91415 92.3246 2.85847 92.3246 2.80278C92.3246 2.65429 92.2689 2.52436 92.1576 2.41299C92.0462 2.30162 91.8977 2.24594 91.7306 2.24594C91.5636 2.24594 91.4337 2.30162 91.3223 2.41299C91.2109 2.52436 91.1552 2.65429 91.1552 2.82135C91.1552 2.9884 91.2109 3.11833 91.3223 3.2297C91.4151 3.28538 91.5079 3.34107 91.6193 3.35963ZM91.6007 2.80278C91.6007 2.76566 91.6193 2.72854 91.6378 2.69142C91.675 2.65429 91.6935 2.65429 91.7492 2.65429C91.7863 2.65429 91.8235 2.67285 91.842 2.69142C91.8791 2.72854 91.8791 2.76566 91.8791 2.80278C91.8791 2.83991 91.8606 2.87703 91.842 2.91415C91.7863 2.96984 91.6935 2.96984 91.6378 2.91415C91.6193 2.87703 91.6007 2.83991 91.6007 2.80278ZM100.362 20.065C100.269 20.0093 100.139 19.9722 100.009 19.9722C99.8049 19.9722 99.6378 20.0464 99.5079 20.2135C99.3965 20.3619 99.3594 20.5847 99.3594 20.8817C99.3594 21.1044 99.378 21.2715 99.4337 21.3828C99.4893 21.5128 99.5636 21.6056 99.6564 21.6613C99.7492 21.7169 99.8791 21.7541 100.009 21.7541C100.158 21.7541 100.269 21.7169 100.362 21.6613C100.455 21.6056 100.529 21.4942 100.584 21.3643C100.64 21.2343 100.659 21.0673 100.659 20.8445C100.659 20.6218 100.64 20.4548 100.584 20.3248C100.547 20.2135 100.473 20.1206 100.362 20.065ZM100.213 20.8631C100.213 21.0487 100.195 21.1972 100.139 21.2715C100.102 21.3457 100.046 21.3457 100.009 21.3457C99.9719 21.3457 99.9163 21.3457 99.8791 21.2529C99.842 21.2158 99.8235 21.1044 99.8235 20.8631C99.8235 20.7146 99.842 20.6032 99.8606 20.529C99.8791 20.4548 99.8977 20.4176 99.9348 20.3991C99.9719 20.3805 99.9905 20.3619 100.028 20.3619C100.065 20.3619 100.12 20.3805 100.158 20.4548C100.195 20.5104 100.213 20.6218 100.213 20.8631ZM98.3385 23.536H98.8397V23.9443H97.5589V23.703L98.0972 23.1833C98.2086 23.0719 98.3014 22.9791 98.3385 22.9049C98.3757 22.8492 98.3942 22.7935 98.3942 22.7378C98.3942 22.7007 98.3757 22.6636 98.3571 22.6264C98.3014 22.5708 98.19 22.5708 98.1158 22.645C98.0787 22.6821 98.0601 22.7378 98.0601 22.7935V22.8492H97.6146V22.7749C97.6146 22.5893 97.6889 22.4408 97.8003 22.3295C97.9116 22.2181 98.0601 22.1624 98.2457 22.1624C98.3571 22.1624 98.4685 22.181 98.5427 22.2367C98.6355 22.2738 98.7098 22.348 98.7469 22.4408C98.8026 22.5336 98.8211 22.6079 98.8211 22.7007C98.8211 22.8121 98.784 22.9234 98.7283 23.0348C98.6726 23.1462 98.5613 23.2761 98.4128 23.4432L98.3385 23.536ZM98.784 21.3086H99.2852V21.7169H98.0044V21.4756L98.5427 20.9559C98.6541 20.8445 98.7469 20.7517 98.784 20.6775C98.8211 20.6218 98.8397 20.5661 98.8397 20.5104C98.8397 20.4733 98.8211 20.4362 98.8026 20.3991C98.7469 20.3434 98.6355 20.3434 98.5613 20.4176C98.5241 20.4548 98.5056 20.5104 98.5056 20.5661V20.6218H98.0601V20.5476C98.0601 20.3619 98.1344 20.2135 98.2457 20.1021C98.3571 19.9907 98.5056 19.935 98.6912 19.935C98.8026 19.935 98.8954 19.9536 98.9882 20.0093C99.081 20.0464 99.1552 20.1206 99.1924 20.2135C99.2481 20.3063 99.2666 20.3805 99.2666 20.4733C99.2666 20.5847 99.2295 20.6961 99.1738 20.8074C99.1181 20.9188 99.0067 21.0487 98.8583 21.2158L98.784 21.3086ZM95.6842 22.8492L95.9627 22.3295L95.5729 22.1439L95.1088 22.9977C95.0532 23.109 95.016 23.1833 94.9975 23.239C94.9789 23.2947 94.9789 23.3503 94.9789 23.406C94.9789 23.5545 95.0346 23.6845 95.146 23.7958C95.2573 23.9072 95.4058 23.9629 95.5729 23.9629C95.7399 23.9629 95.8699 23.9072 95.9812 23.7958C96.0926 23.6845 96.1483 23.5545 96.1483 23.406C96.1483 23.239 96.0926 23.109 95.9812 22.9977C95.907 22.9234 95.7956 22.8863 95.6842 22.8492ZM95.7214 23.4246C95.7214 23.4617 95.7028 23.4988 95.6842 23.536C95.6286 23.5916 95.5358 23.5916 95.4801 23.536C95.4429 23.4988 95.4429 23.4617 95.4429 23.4246C95.4429 23.3875 95.4615 23.3503 95.4801 23.3132C95.4986 23.2947 95.5358 23.2761 95.5729 23.2761C95.61 23.2761 95.6471 23.2947 95.6842 23.3132C95.7028 23.3318 95.7214 23.3689 95.7214 23.4246ZM85.9766 22.2181H87.2016V22.478L86.4221 24.0186L86.0323 23.8329L86.6448 22.645H85.9951V22.2181H85.9766ZM95.4429 2.91415H94.9975V2.83991C94.9975 2.65429 95.0717 2.5058 95.1831 2.39443C95.2944 2.28306 95.4429 2.22738 95.6286 2.22738C95.7399 2.22738 95.8327 2.24594 95.9255 2.30162C96.0183 2.33875 96.0926 2.41299 96.1297 2.5058C96.1854 2.59861 96.204 2.67285 96.204 2.76566C96.204 2.87703 96.1668 2.9884 96.1112 3.09977C96.0555 3.21114 95.9441 3.34107 95.7956 3.50812L95.7214 3.58237H96.2225V3.99072H94.9418V3.74942L95.4801 3.2297C95.5914 3.11833 95.6842 3.02552 95.7214 2.95128C95.7585 2.89559 95.7771 2.83991 95.7771 2.78422C95.7771 2.7471 95.7585 2.70998 95.7399 2.67285C95.6842 2.61717 95.5729 2.61717 95.4986 2.69142C95.4615 2.72854 95.4429 2.78422 95.4429 2.83991V2.91415ZM102.515 16.3712C102.422 16.2784 102.329 16.2413 102.218 16.2227L102.496 15.703L102.107 15.5174L101.642 16.3712C101.587 16.4826 101.55 16.5568 101.531 16.6125C101.513 16.6682 101.513 16.7239 101.513 16.7796C101.513 16.9281 101.568 17.058 101.68 17.1694C101.791 17.2807 101.939 17.3364 102.107 17.3364C102.274 17.3364 102.403 17.2807 102.515 17.1694C102.626 17.058 102.682 16.9281 102.682 16.7796C102.682 16.6125 102.626 16.4826 102.515 16.3712ZM102.236 16.761C102.236 16.7981 102.218 16.8353 102.199 16.8724C102.144 16.9281 102.051 16.9281 101.995 16.8724C101.958 16.8353 101.958 16.8167 101.958 16.761C101.958 16.7239 101.977 16.6868 101.995 16.6497C102.014 16.6311 102.051 16.6125 102.088 16.6125C102.125 16.6125 102.162 16.6311 102.199 16.6497C102.218 16.6868 102.236 16.7239 102.236 16.761ZM100.269 19.0998H100.77V19.5081H99.4893V19.2668L100.028 18.7471C100.139 18.6357 100.232 18.5429 100.269 18.4687C100.306 18.413 100.325 18.3573 100.325 18.3016C100.325 18.2645 100.306 18.2274 100.287 18.1903C100.232 18.1346 100.12 18.1346 100.046 18.2088C100.009 18.2459 99.9905 18.3016 99.9905 18.3573V18.413H99.545V18.3387C99.545 18.1531 99.6193 18.0046 99.7306 17.8933C99.842 17.7819 99.9905 17.7262 100.176 17.7262C100.287 17.7262 100.399 17.7448 100.473 17.8005C100.566 17.8376 100.64 17.9118 100.677 18.0046C100.733 18.0974 100.752 18.1717 100.752 18.2645C100.752 18.3759 100.714 18.4872 100.659 18.5986C100.603 18.71 100.492 18.8399 100.343 19.007L100.269 19.0998ZM101.791 17.8376C101.698 17.7819 101.568 17.7448 101.438 17.7448C101.234 17.7448 101.067 17.819 100.937 17.9861C100.826 18.1346 100.789 18.3573 100.789 18.6543C100.789 18.877 100.807 19.0441 100.863 19.1555C100.919 19.2854 100.993 19.3782 101.086 19.4339C101.178 19.4896 101.308 19.5267 101.438 19.5267C101.587 19.5267 101.698 19.4896 101.791 19.4339C101.884 19.3782 101.958 19.2668 102.014 19.1369C102.069 19.007 102.088 18.8399 102.088 18.6172C102.088 18.3944 102.069 18.2274 102.014 18.0974C101.977 18.0046 101.902 17.9118 101.791 17.8376ZM101.661 18.6543C101.661 18.8399 101.642 18.9884 101.587 19.0626C101.55 19.1369 101.494 19.1369 101.457 19.1369C101.42 19.1369 101.364 19.1369 101.327 19.0441C101.29 19.007 101.253 18.8956 101.253 18.6543C101.253 18.5058 101.271 18.3944 101.29 18.3202C101.308 18.2459 101.327 18.2088 101.364 18.1903C101.401 18.1717 101.42 18.1531 101.457 18.1531C101.494 18.1531 101.55 18.1717 101.587 18.2459C101.624 18.3016 101.661 18.413 101.661 18.6543ZM97.3548 22.942C97.4661 23.0534 97.5218 23.2019 97.5218 23.3689C97.5218 23.536 97.4661 23.6845 97.3362 23.8144C97.2063 23.9258 97.0578 24 96.8907 24C96.7422 24 96.5938 23.9629 96.4824 23.8701C96.371 23.7773 96.2968 23.6659 96.2596 23.5174L96.2411 23.4432H96.7051L96.7237 23.4803C96.7422 23.5174 96.7608 23.5545 96.7979 23.5731C96.8722 23.6102 96.965 23.6102 97.0207 23.5545C97.0578 23.5174 97.0764 23.4803 97.0764 23.406C97.0764 23.3503 97.0578 23.2947 97.0207 23.2761C96.965 23.2204 96.9093 23.2019 96.8351 23.239C96.8165 23.2575 96.7794 23.2761 96.7608 23.2947L96.7422 23.3132L96.3896 23.239L96.6123 22.2367H97.5218V22.645H96.965L96.9279 22.7935H96.9464C97.0949 22.7749 97.2434 22.8306 97.3548 22.942ZM87.9441 20.6404L88.2225 20.1206L87.8327 19.935L87.3687 20.7889C87.313 20.9002 87.2759 20.9745 87.2573 21.0302C87.2388 21.0858 87.2388 21.1415 87.2388 21.1972C87.2388 21.3457 87.2945 21.4756 87.4058 21.587C87.5172 21.6984 87.6657 21.7541 87.8327 21.7541C87.9998 21.7541 88.1297 21.6984 88.2411 21.587C88.3525 21.4756 88.4081 21.3457 88.4081 21.1972C88.4081 21.0302 88.3525 20.9002 88.2411 20.7889C88.1668 20.7146 88.074 20.6589 87.9441 20.6404ZM87.9812 21.1972C87.9812 21.2343 87.9627 21.2715 87.9441 21.3086C87.8884 21.3643 87.7956 21.3643 87.7399 21.3086C87.7028 21.2715 87.7028 21.2343 87.7028 21.1972C87.7028 21.1601 87.7214 21.123 87.7399 21.0858C87.7585 21.0673 87.7956 21.0487 87.8327 21.0487C87.8699 21.0487 87.907 21.0673 87.9441 21.0858C87.9627 21.123 87.9812 21.1601 87.9812 21.1972ZM89.5775 22.9977C89.6146 22.9606 89.6518 22.9049 89.6703 22.8677C89.6889 22.8121 89.7074 22.7564 89.7074 22.6821C89.7074 22.5893 89.6889 22.4965 89.6332 22.4223C89.5775 22.348 89.5218 22.2738 89.429 22.2367C89.262 22.1439 89.0207 22.1439 88.8536 22.2367C88.7608 22.2738 88.7051 22.348 88.6494 22.4223C88.5938 22.4965 88.5752 22.5893 88.5752 22.6821C88.5752 22.7564 88.5938 22.8121 88.6123 22.8863C88.6309 22.9234 88.6494 22.9606 88.6866 22.9977C88.6309 23.0534 88.5938 23.109 88.5566 23.1647C88.5195 23.239 88.5009 23.3318 88.5009 23.4246C88.5009 23.536 88.5195 23.6288 88.5752 23.7216C88.6309 23.8144 88.7051 23.8701 88.7979 23.9258C88.8907 23.9629 89.0021 23.9814 89.1506 23.9814C89.2805 23.9814 89.3919 23.9629 89.4847 23.9072C89.5775 23.8701 89.6518 23.7958 89.7074 23.703C89.7631 23.6102 89.7817 23.5174 89.7817 23.4246C89.7817 23.3318 89.7631 23.239 89.7074 23.1647C89.6703 23.0905 89.6332 23.0534 89.5775 22.9977ZM89.2249 22.7935C89.1877 22.8306 89.1135 22.8306 89.0578 22.7935C89.0392 22.7749 89.0207 22.7378 89.0207 22.7193C89.0207 22.6821 89.0392 22.6636 89.0578 22.645C89.0764 22.6264 89.0949 22.6079 89.132 22.6079C89.1692 22.6079 89.2063 22.6264 89.2249 22.645C89.2434 22.6636 89.262 22.6821 89.262 22.7193C89.2434 22.7378 89.2434 22.7749 89.2249 22.7935ZM89.0021 23.2947C89.0392 23.2575 89.0949 23.239 89.1506 23.239C89.2063 23.239 89.262 23.2575 89.2991 23.2947C89.3362 23.3318 89.3548 23.3689 89.3548 23.406C89.3548 23.4617 89.3362 23.4803 89.2991 23.5174C89.2248 23.5731 89.0764 23.5731 89.0021 23.5174C88.965 23.4803 88.9464 23.4432 88.9464 23.406C88.9464 23.3503 88.965 23.3132 89.0021 23.2947ZM87.8513 22.8492L88.1297 22.3295L87.7399 22.1439L87.2759 22.9977C87.2202 23.109 87.1831 23.1833 87.1645 23.239C87.146 23.2947 87.146 23.3503 87.146 23.406C87.146 23.5545 87.2016 23.6845 87.313 23.7958C87.4244 23.9072 87.5729 23.9629 87.7399 23.9629C87.907 23.9629 88.0369 23.9072 88.1483 23.7958C88.2597 23.6845 88.3153 23.5545 88.3153 23.406C88.3153 23.239 88.2597 23.109 88.1483 22.9977C88.074 22.9234 87.9627 22.8863 87.8513 22.8492ZM87.8699 23.4246C87.8699 23.4617 87.8513 23.4988 87.8327 23.536C87.7771 23.5916 87.6842 23.5916 87.6286 23.536C87.5914 23.4988 87.5914 23.4617 87.5914 23.4246C87.5914 23.3875 87.61 23.3503 87.6286 23.3132C87.6471 23.2947 87.6842 23.2761 87.7214 23.2761C87.7585 23.2761 87.7956 23.2947 87.8327 23.3132C87.8699 23.3318 87.8699 23.3689 87.8699 23.4246ZM90.617 22.8492L90.8954 22.3295L90.5056 22.1439L90.0416 22.9977C89.9859 23.109 89.9487 23.1833 89.9302 23.239C89.9116 23.2947 89.9116 23.3503 89.9116 23.406C89.9116 23.5545 89.9673 23.6845 90.0787 23.7958C90.19 23.9072 90.3385 23.9629 90.5056 23.9629C90.6726 23.9629 90.8026 23.9072 90.9139 23.7958C91.0253 23.6845 91.081 23.5545 91.081 23.406C91.081 23.239 91.0253 23.109 90.9139 22.9977C90.8211 22.9234 90.7283 22.8863 90.617 22.8492ZM90.6355 23.4246C90.6355 23.4617 90.617 23.4988 90.5984 23.536C90.5427 23.5916 90.4499 23.5916 90.3942 23.536C90.3571 23.4988 90.3571 23.4617 90.3571 23.4246C90.3571 23.3875 90.3757 23.3503 90.3942 23.3132C90.4128 23.2947 90.4499 23.2761 90.487 23.2761C90.5242 23.2761 90.5613 23.2947 90.5984 23.3132C90.617 23.3318 90.6355 23.3689 90.6355 23.4246ZM93.6796 22.478L92.9 24.0186L92.5102 23.8329L93.1228 22.645H92.4731V22.2367H93.6982L93.6796 22.478ZM94.719 22.181H94.2921L93.5497 23.239L93.5311 23.2575V23.6288H94.255V23.9629H94.7005V23.6288H94.849V23.2019H94.7005V22.181H94.719ZM94.088 23.2019L94.2736 22.942V23.2019H94.088ZM91.7492 22.181C91.5822 22.181 91.4522 22.2367 91.3409 22.348C91.2295 22.4594 91.1738 22.5893 91.1738 22.7564C91.1738 22.9234 91.2295 23.0534 91.3409 23.1647C91.4337 23.2575 91.5265 23.2947 91.6378 23.3132L91.3594 23.8329L91.7492 24.0186L92.2132 23.1647C92.2689 23.0534 92.3061 22.9791 92.3246 22.9234C92.3432 22.8677 92.3432 22.8121 92.3432 22.7564C92.3432 22.6079 92.2875 22.478 92.1761 22.3666C92.0462 22.2367 91.9163 22.181 91.7492 22.181ZM91.8791 22.7378C91.8791 22.7749 91.8606 22.8121 91.842 22.8492C91.7863 22.9049 91.6935 22.9049 91.6378 22.8492C91.6007 22.8121 91.6007 22.7935 91.6007 22.7378C91.6007 22.7007 91.6193 22.6636 91.6378 22.6264C91.675 22.5893 91.6935 22.5893 91.7492 22.5893C91.7863 22.5893 91.8235 22.6079 91.842 22.6264C91.8791 22.6636 91.8791 22.7007 91.8791 22.7378ZM99.7121 12.3805L99.6378 12.4548H100.139V12.8631H98.8583V12.6218L99.3965 12.1021C99.5079 11.9907 99.6007 11.8979 99.6378 11.8237C99.675 11.768 99.6935 11.7123 99.6935 11.6566C99.6935 11.6195 99.675 11.5824 99.6564 11.5452C99.6007 11.4896 99.4893 11.4896 99.4151 11.5452C99.378 11.5824 99.3594 11.6381 99.3594 11.6937V11.7494H98.9139V11.6752C98.9139 11.4896 98.9882 11.3411 99.0996 11.2297C99.2109 11.1183 99.3594 11.0626 99.545 11.0626C99.6564 11.0626 99.7492 11.0812 99.842 11.1369C99.9348 11.174 100.009 11.2483 100.046 11.3411C100.102 11.4339 100.12 11.5081 100.12 11.6009C100.12 11.7123 100.083 11.8237 100.028 11.935C99.9719 12.0835 99.8606 12.2135 99.7121 12.3805ZM98.2272 9.13225C98.1158 9.28074 98.0787 9.50348 98.0787 9.80046C98.0787 10.0232 98.0972 10.1903 98.1529 10.3016C98.2086 10.4316 98.2829 10.5244 98.3757 10.58C98.4685 10.6357 98.5984 10.6729 98.7283 10.6729C98.8768 10.6729 98.9882 10.6357 99.081 10.58C99.1738 10.5244 99.248 10.413 99.3037 10.2831C99.3594 10.1531 99.378 9.98608 99.378 9.76334C99.378 9.5406 99.3594 9.37355 99.3037 9.24362C99.248 9.11369 99.1738 9.02088 99.081 8.94664C98.9882 8.89095 98.8583 8.85383 98.7283 8.85383C98.5056 8.89095 98.3385 8.9652 98.2272 9.13225ZM98.8583 9.39211C98.8954 9.44779 98.9139 9.5406 98.9139 9.80046C98.9139 9.98608 98.8954 10.1346 98.8397 10.2088C98.8026 10.2831 98.7469 10.2831 98.7098 10.2831C98.6726 10.2831 98.617 10.2831 98.5798 10.1903C98.5427 10.1531 98.5056 10.0418 98.5056 9.80046C98.5056 9.65197 98.5242 9.5406 98.5427 9.46636C98.5613 9.39211 98.5798 9.35499 98.617 9.33643C98.6541 9.31786 98.6726 9.2993 98.7098 9.2993C98.7654 9.2993 98.8026 9.31786 98.8583 9.39211ZM95.61 1.81903C95.777 1.81903 95.907 1.76334 96.0183 1.65197C96.1297 1.5406 96.1854 1.41067 96.1854 1.26218C96.1854 1.09513 96.1297 0.965197 96.0183 0.853828C95.9255 0.761021 95.8327 0.723898 95.7214 0.705336L95.9998 0.185615L95.61 0L95.146 0.853828C95.0903 0.965197 95.0532 1.03944 95.0346 1.09513C95.016 1.15081 95.016 1.2065 95.016 1.26218C95.016 1.41067 95.0717 1.5406 95.1831 1.65197C95.2944 1.76334 95.4429 1.81903 95.61 1.81903ZM95.4615 1.26218C95.4615 1.22506 95.4801 1.18793 95.4986 1.15081C95.5172 1.13225 95.5543 1.11369 95.5914 1.11369C95.6286 1.11369 95.6657 1.13225 95.7028 1.15081C95.7399 1.18793 95.7399 1.2065 95.7399 1.26218C95.7399 1.2993 95.7214 1.33643 95.7028 1.37355C95.6471 1.42923 95.5543 1.42923 95.4986 1.37355C95.4801 1.33643 95.4615 1.2993 95.4615 1.26218ZM96.9093 11.0812L96.4453 11.935C96.3896 12.0464 96.3525 12.1206 96.3339 12.1763C96.3153 12.232 96.3153 12.2877 96.3153 12.3434C96.3153 12.4919 96.371 12.6218 96.4824 12.7332C96.5938 12.8445 96.7422 12.9002 96.9093 12.9002C97.0763 12.9002 97.2063 12.8445 97.3177 12.7332C97.429 12.6218 97.4847 12.4919 97.4847 12.3434C97.4847 12.1763 97.429 12.0464 97.3177 11.935C97.2248 11.8608 97.132 11.8051 97.0207 11.7865L97.2991 11.2668L96.9093 11.0812ZM97.0578 12.3434C97.0578 12.3805 97.0392 12.4176 97.0207 12.4548C96.965 12.5104 96.8722 12.5104 96.8165 12.4548C96.7794 12.4176 96.7794 12.3991 96.7794 12.3434C96.7794 12.3063 96.7979 12.2691 96.8165 12.232C96.8351 12.2135 96.8722 12.1949 96.9093 12.1949C96.9464 12.1949 96.9835 12.2135 97.0207 12.232C97.0392 12.2506 97.0578 12.2877 97.0578 12.3434ZM99.5079 6.64501L99.0439 7.49884C98.9882 7.61021 98.9511 7.68445 98.9325 7.74014C98.9139 7.79582 98.9139 7.85151 98.9139 7.90719C98.9139 8.05568 98.9696 8.18561 99.081 8.29698C99.1924 8.40835 99.3408 8.46404 99.5079 8.46404C99.675 8.46404 99.8049 8.40835 99.9163 8.29698C100.028 8.18561 100.083 8.05568 100.083 7.90719C100.083 7.74014 100.028 7.61021 99.9163 7.49884C99.8235 7.42459 99.7306 7.36891 99.6193 7.35035L99.8977 6.83063L99.5079 6.64501ZM99.6378 7.90719C99.6378 7.94431 99.6193 7.98144 99.6007 8.01856C99.545 8.07425 99.4522 8.07425 99.3965 8.01856C99.3594 7.98144 99.3594 7.96288 99.3594 7.90719C99.3594 7.87007 99.378 7.83295 99.3965 7.79582C99.4151 7.77726 99.4522 7.7587 99.4893 7.7587C99.5265 7.7587 99.5636 7.77726 99.6007 7.79582C99.6193 7.83295 99.6378 7.85151 99.6378 7.90719ZM97.6332 10.1531L97.5589 10.2274H98.0601V10.6357H96.7794V10.3944L97.3177 9.87471C97.429 9.76334 97.5218 9.67053 97.5589 9.59629C97.5961 9.5406 97.6146 9.48492 97.6146 9.42923C97.6146 9.39211 97.5961 9.35499 97.5775 9.31787C97.5218 9.26218 97.4105 9.26218 97.3362 9.33643C97.2991 9.37355 97.2805 9.42923 97.2805 9.48492V9.5406H96.8351V9.46636C96.8351 9.28074 96.9093 9.13225 97.0207 9.02088C97.132 8.90951 97.2805 8.85383 97.4661 8.85383C97.5775 8.85383 97.6889 8.87239 97.7631 8.92807C97.8559 8.9652 97.9302 9.03944 97.9673 9.13225C98.023 9.22506 98.0416 9.2993 98.0416 9.39211C98.0416 9.50348 98.0044 9.61485 97.9487 9.72622C97.8931 9.87471 97.7817 10.0046 97.6332 10.1531ZM95.6842 13.884C95.6842 14.051 95.7399 14.181 95.8513 14.2923C95.9441 14.3851 96.0369 14.4223 96.1483 14.4408L95.8699 14.9606L96.2596 15.1462L96.7237 14.2923C96.7794 14.181 96.8165 14.1067 96.8351 14.051C96.8536 13.9954 96.8536 13.9397 96.8536 13.884C96.8536 13.7355 96.7979 13.6056 96.6866 13.4942C96.5752 13.3828 96.4267 13.3271 96.2596 13.3271C96.0926 13.3271 95.9627 13.3828 95.8513 13.4942C95.7399 13.587 95.6842 13.7169 95.6842 13.884ZM96.1297 13.884C96.1297 13.8469 96.1483 13.8097 96.1668 13.7726C96.204 13.7355 96.2225 13.7355 96.2782 13.7355C96.3153 13.7355 96.3525 13.7541 96.371 13.7726C96.4081 13.8097 96.4081 13.8283 96.4081 13.884C96.4081 13.9211 96.3896 13.9582 96.371 13.9954C96.3153 14.051 96.2225 14.051 96.1668 13.9954C96.1483 13.9582 96.1297 13.9211 96.1297 13.884ZM97.4105 15.1276C97.262 15.1276 97.1135 15.0905 97.0021 14.9977C96.8907 14.9049 96.8165 14.7935 96.7794 14.645L96.7608 14.5708H97.2248L97.2434 14.6079C97.262 14.645 97.2805 14.6821 97.3177 14.7007C97.3919 14.7378 97.4847 14.7378 97.5404 14.6821C97.5775 14.645 97.5961 14.6079 97.5961 14.5336C97.5961 14.478 97.5775 14.4223 97.5404 14.4037C97.4847 14.348 97.429 14.3295 97.3548 14.3666C97.3362 14.3851 97.2991 14.4037 97.2805 14.4223L97.262 14.4408L96.9093 14.3666L97.132 13.3643H98.0416V13.7726H97.4847L97.4476 13.9211H97.4661C97.6332 13.9211 97.7817 13.9768 97.8931 14.0882C98.0044 14.1995 98.0601 14.348 98.0601 14.5151C98.0601 14.6821 98.0044 14.8306 97.8745 14.9606C97.726 15.0534 97.5775 15.1276 97.4105 15.1276ZM98.5613 6.77494C98.4685 6.71926 98.3385 6.68213 98.2086 6.68213C98.0044 6.68213 97.8374 6.75638 97.7074 6.92343C97.5961 7.07193 97.5589 7.29466 97.5589 7.59165C97.5589 7.81438 97.5775 7.98144 97.6332 8.09281C97.6889 8.22274 97.7631 8.31554 97.8559 8.37123C97.9487 8.42691 98.0787 8.46404 98.2086 8.46404C98.3571 8.46404 98.4685 8.42691 98.5613 8.37123C98.6541 8.31554 98.7283 8.20418 98.784 8.07425C98.8397 7.94431 98.8583 7.77726 98.8583 7.55452C98.8583 7.33179 98.8397 7.16473 98.784 7.0348C98.7283 6.92343 98.6541 6.83063 98.5613 6.77494ZM98.4128 7.57309C98.4128 7.7587 98.3942 7.90719 98.3385 7.98144C98.3014 8.05568 98.2457 8.05568 98.2086 8.05568C98.1715 8.05568 98.1158 8.05568 98.0787 7.96288C98.0416 7.92575 98.0044 7.81438 98.0044 7.57309C98.0044 7.42459 98.023 7.31322 98.0416 7.23898C98.0601 7.16473 98.0787 7.12761 98.1158 7.10905C98.1529 7.09049 98.1715 7.07193 98.2086 7.07193C98.2457 7.07193 98.3014 7.09049 98.3385 7.16473C98.3757 7.22042 98.4128 7.33179 98.4128 7.57309ZM97.3177 17.1694C97.429 17.058 97.4847 16.9281 97.4847 16.7796C97.4847 16.6125 97.429 16.4826 97.3177 16.3712C97.2248 16.2784 97.132 16.2413 97.0207 16.2227L97.2991 15.703L96.9093 15.5174L96.4453 16.3712C96.3896 16.4826 96.3525 16.5568 96.3339 16.6125C96.3153 16.6682 96.3153 16.7239 96.3153 16.7796C96.3153 16.9281 96.371 17.058 96.4824 17.1694C96.5938 17.2807 96.7422 17.3364 96.9093 17.3364C97.0578 17.3364 97.2063 17.2807 97.3177 17.1694ZM96.7608 16.761C96.7608 16.7239 96.7794 16.6868 96.7979 16.6497C96.8165 16.6311 96.8536 16.6125 96.8907 16.6125C96.9279 16.6125 96.965 16.6311 97.0021 16.6497C97.0392 16.6868 97.0392 16.7053 97.0392 16.761C97.0392 16.7981 97.0207 16.8353 97.0021 16.8724C96.9464 16.9281 96.8536 16.9281 96.7979 16.8724C96.7794 16.8538 96.7608 16.8167 96.7608 16.761ZM100.362 14.5893L100.287 14.6636H100.789V15.0719H99.4893V14.8492L100.028 14.3295C100.139 14.2181 100.232 14.1253 100.269 14.051C100.306 13.9954 100.325 13.9397 100.325 13.884C100.325 13.8469 100.306 13.8097 100.287 13.7726C100.232 13.7169 100.12 13.7169 100.046 13.7912C100.009 13.8283 99.9905 13.884 99.9905 13.9397V13.9954H99.545V13.9211C99.545 13.7355 99.6193 13.587 99.7306 13.4756C99.842 13.3643 99.9905 13.3086 100.176 13.3086C100.287 13.3086 100.399 13.3271 100.473 13.3828C100.566 13.42 100.64 13.4942 100.677 13.587C100.733 13.6798 100.752 13.7541 100.752 13.8469C100.752 13.9582 100.714 14.0696 100.659 14.181C100.622 14.3109 100.51 14.4408 100.362 14.5893ZM96.8907 4.45476L96.1483 5.51276L96.1297 5.53132V5.90255H96.8536V6.23666H97.2991V5.90255H97.4476V5.4942H97.2991V4.45476H96.8907ZM96.6866 5.47564L96.8722 5.21578V5.47564H96.6866ZM99.6193 5.79118C99.6564 5.75406 99.675 5.71694 99.675 5.64269C99.675 5.58701 99.6564 5.53132 99.6193 5.51276C99.5636 5.45708 99.5079 5.43851 99.4337 5.47564C99.4151 5.4942 99.378 5.51276 99.3594 5.53132L99.3409 5.54988L98.9882 5.47564L99.2109 4.47332H100.12V4.88167H99.5636L99.5265 5.03016H99.545C99.7121 5.03016 99.8606 5.08585 99.9719 5.19722C100.083 5.30858 100.139 5.45708 100.139 5.62413C100.139 5.79118 100.083 5.93967 99.9534 6.06961C99.8235 6.18097 99.675 6.25522 99.5079 6.25522C99.3594 6.25522 99.2109 6.2181 99.0996 6.12529C98.9882 6.03248 98.9139 5.92111 98.8768 5.77262L98.8583 5.69838H99.3223L99.3409 5.7355C99.3594 5.77262 99.378 5.80974 99.4151 5.82831C99.4522 5.86543 99.5636 5.84687 99.6193 5.79118ZM99.3223 15.0719V14.7378H99.4708V14.3295H99.3223V13.3086H98.8954L98.1529 14.3666L98.1344 14.3851V14.7564H98.8583V15.0905H99.3223V15.0719ZM98.6912 14.348L98.8768 14.0882V14.348H98.6912ZM98.1529 17.355L98.617 16.5012C98.6726 16.3898 98.7098 16.3155 98.7283 16.2599C98.7469 16.2042 98.7469 16.1485 98.7469 16.0928C98.7469 15.9443 98.6912 15.8144 98.5798 15.703C98.4685 15.5916 98.32 15.536 98.1529 15.536C97.9859 15.536 97.8559 15.5916 97.7446 15.703C97.6332 15.8144 97.5775 15.9443 97.5775 16.1114C97.5775 16.2784 97.6332 16.4084 97.7446 16.5197C97.8374 16.6125 97.9302 16.6497 98.0416 16.6682L97.7631 17.1879L98.1529 17.355ZM98.0044 16.0928C98.0044 16.0557 98.023 16.0186 98.0416 15.9814C98.0787 15.9443 98.0972 15.9443 98.1529 15.9443C98.19 15.9443 98.2272 15.9629 98.2457 15.9814C98.2828 16.0186 98.2829 16.0557 98.2829 16.0928C98.2829 16.1299 98.2643 16.1671 98.2457 16.2042C98.19 16.2599 98.0972 16.2599 98.0416 16.2042C98.023 16.1856 98.0044 16.1485 98.0044 16.0928ZM96.1112 9.61485C96.1483 9.55916 96.1668 9.50348 96.1668 9.4478C96.1668 9.41067 96.1483 9.37355 96.1297 9.33643C96.074 9.28074 95.9627 9.28074 95.8884 9.35499C95.8513 9.39211 95.8327 9.4478 95.8327 9.50348V9.55916H95.3873V9.48492C95.3873 9.2993 95.4615 9.15081 95.5729 9.03944C95.6842 8.92807 95.8327 8.87239 96.0183 8.87239C96.1297 8.87239 96.2411 8.89095 96.3153 8.94664C96.4081 8.98376 96.4824 9.058 96.5195 9.15081C96.5752 9.24362 96.5938 9.31787 96.5938 9.41067C96.5938 9.52204 96.5566 9.63341 96.501 9.74478C96.4453 9.85615 96.3339 9.98608 96.1854 10.1531L96.1112 10.2274H96.6123V10.6357H95.3316V10.3944L95.8699 9.87471C95.9998 9.76334 96.074 9.67053 96.1112 9.61485ZM97.0207 7.40603C97.0578 7.35035 97.0764 7.29466 97.0764 7.23898C97.0764 7.20186 97.0578 7.16473 97.0392 7.12761C96.9835 7.07193 96.8722 7.07193 96.7979 7.14617C96.7608 7.18329 96.7422 7.23898 96.7422 7.29466V7.35035H96.2968V7.2761C96.2968 7.09049 96.371 6.94199 96.4824 6.83063C96.5938 6.71926 96.7422 6.66357 96.9279 6.66357C97.0392 6.66357 97.132 6.68213 97.2248 6.73782C97.3177 6.77494 97.3919 6.84919 97.429 6.942C97.4847 7.0348 97.5033 7.10905 97.5033 7.20186C97.5033 7.31322 97.4661 7.42459 97.4105 7.53596C97.3548 7.64733 97.2434 7.77726 97.0949 7.94431L97.0207 8.01856H97.5218V8.42691H96.2411V8.18561L96.7794 7.66589C96.9093 7.55452 96.9835 7.46172 97.0207 7.40603ZM96.2782 19.5638L96.7422 18.71C96.7979 18.5986 96.8351 18.5244 96.8536 18.4687C96.8722 18.413 96.8722 18.3573 96.8722 18.3016C96.8722 18.1531 96.8165 18.0232 96.7051 17.9118C96.5938 17.8005 96.4453 17.7448 96.2782 17.7448C96.1112 17.7448 95.9812 17.8005 95.8699 17.9118C95.7585 18.0232 95.7028 18.1531 95.7028 18.3202C95.7028 18.4872 95.7585 18.6172 95.8699 18.7285C95.9627 18.8213 96.0555 18.8585 96.1668 18.877L95.8884 19.3968L96.2782 19.5638ZM96.1297 18.3202C96.1297 18.2831 96.1483 18.2459 96.1668 18.2088C96.204 18.1717 96.2225 18.1717 96.2782 18.1717C96.3153 18.1717 96.3525 18.1903 96.371 18.2088C96.4081 18.2459 96.4081 18.2645 96.4081 18.3202C96.4081 18.3573 96.3896 18.3944 96.371 18.4316C96.3153 18.4872 96.2225 18.4872 96.1668 18.4316C96.1483 18.3944 96.1297 18.3573 96.1297 18.3202ZM97.8931 11.1369H98.8026V11.5452H98.2457L98.2086 11.6937H98.2272C98.3942 11.6937 98.5427 11.7494 98.6541 11.8608C98.7654 11.9722 98.8211 12.1206 98.8211 12.2877C98.8211 12.4548 98.7655 12.6032 98.6355 12.7332C98.5056 12.8445 98.3571 12.9188 98.19 12.9188C98.0416 12.9188 97.8931 12.8817 97.7817 12.7889C97.6703 12.6961 97.5961 12.5847 97.5589 12.4362L97.5404 12.3619H98.0044L98.023 12.3991C98.0415 12.4362 98.0601 12.4733 98.0972 12.4919C98.1715 12.529 98.2643 12.529 98.32 12.4733C98.3571 12.4362 98.3757 12.3991 98.3757 12.3248C98.3757 12.2691 98.3571 12.2135 98.32 12.1949C98.2643 12.1392 98.2086 12.1206 98.1344 12.1578C98.1158 12.1763 98.0787 12.1949 98.0601 12.2135L98.0416 12.232L97.6889 12.1578L97.8931 11.1369ZM99.6007 2.69142H98.9325V2.28306H100.158V2.54292L99.378 4.06496L98.9882 3.87935L99.6007 2.69142ZM98.2086 18.9698V18.8956H98.6541V18.9513C98.6726 19.0255 98.6912 19.0626 98.7283 19.0998C98.8026 19.1555 98.9139 19.1555 98.9882 19.0998C99.0253 19.0626 99.0439 19.0255 99.0439 18.9884C99.0439 18.9327 99.0253 18.8956 98.9696 18.8585C98.9139 18.8213 98.8397 18.8028 98.7283 18.8028H98.6541V18.413H98.7098C98.8026 18.413 98.8397 18.3944 98.8583 18.3759C98.8768 18.3573 98.8954 18.3573 98.9139 18.3202C98.9325 18.3016 98.9325 18.2831 98.9325 18.2645C98.9325 18.2459 98.9325 18.2274 98.9139 18.2088C98.8954 18.1903 98.8768 18.1903 98.8397 18.1903C98.8026 18.1903 98.784 18.1903 98.7654 18.2088C98.7469 18.2274 98.7283 18.2459 98.7098 18.2831L98.6912 18.3202H98.2643L98.2829 18.2459C98.3014 18.116 98.3571 18.0046 98.4313 17.9304C98.5427 17.819 98.6912 17.7633 98.8583 17.7633C99.0067 17.7633 99.1367 17.819 99.248 17.9118C99.3594 18.0046 99.4151 18.116 99.4151 18.2459C99.4151 18.3387 99.3965 18.413 99.3409 18.4687C99.3223 18.5058 99.2852 18.5429 99.248 18.5615C99.3037 18.5986 99.3594 18.6357 99.3965 18.6914C99.4708 18.7842 99.4893 18.877 99.4893 18.9884C99.4893 19.1555 99.4337 19.2854 99.3037 19.3968C99.1738 19.5081 99.0253 19.5638 98.8397 19.5638C98.6541 19.5638 98.5056 19.5081 98.3942 19.3968C98.2828 19.2854 98.2272 19.1369 98.2086 18.9698ZM100.158 15.8329L99.378 17.355L98.9882 17.1694L99.6007 15.9814H98.9325V15.5731H100.158V15.8329ZM98.3014 2.69142H97.6332V2.28306H98.8583V2.54292L98.0787 4.06496L97.6889 3.87935L98.3014 2.69142ZM100.622 5.14153H100.176V5.06729C100.176 4.88167 100.25 4.73318 100.362 4.62181C100.473 4.51044 100.622 4.45476 100.807 4.45476C100.919 4.45476 101.03 4.47332 101.104 4.529C101.197 4.56612 101.271 4.64037 101.308 4.73318C101.364 4.82599 101.383 4.90023 101.383 4.99304C101.383 5.10441 101.345 5.21578 101.29 5.32715C101.234 5.43851 101.123 5.56845 100.974 5.7355L100.9 5.80974H101.401V6.2181H100.12V5.9768L100.659 5.45708C100.77 5.34571 100.863 5.2529 100.9 5.17865C100.937 5.12297 100.956 5.06729 100.956 5.0116C100.956 4.97448 100.937 4.93735 100.919 4.90023C100.863 4.84455 100.752 4.84455 100.677 4.91879C100.64 4.95592 100.622 5.0116 100.622 5.06729V5.14153ZM97.0207 1.35499C97.0578 1.31787 97.0764 1.28074 97.0764 1.2065C97.0764 1.15081 97.0578 1.09513 97.0207 1.07657C96.965 1.02088 96.9093 1.00232 96.8351 1.03944C96.8165 1.058 96.7794 1.07657 96.7608 1.09513L96.7422 1.11369L96.3896 1.03944L96.6123 0.037123H97.5218V0.445476H96.965L96.9279 0.593967H96.9464C97.1135 0.593967 97.262 0.649652 97.3733 0.761021C97.4847 0.87239 97.5404 1.02088 97.5404 1.18793C97.5404 1.35499 97.4847 1.50348 97.3548 1.63341C97.2248 1.74478 97.0763 1.81903 96.9093 1.81903C96.7608 1.81903 96.6123 1.7819 96.501 1.6891C96.3896 1.59629 96.3153 1.48492 96.2782 1.33643L96.2596 1.26218H96.7237L96.7422 1.2993C96.7608 1.33643 96.7794 1.37355 96.8165 1.39211C96.8722 1.42923 96.965 1.42923 97.0207 1.35499ZM97.262 2.33875C97.1692 2.28306 97.0392 2.24594 96.9093 2.24594C96.7051 2.24594 96.5381 2.32019 96.4081 2.48724C96.2968 2.63573 96.2596 2.85847 96.2596 3.15545C96.2596 3.37819 96.2782 3.54524 96.3339 3.65661C96.3896 3.78654 96.4638 3.87935 96.5566 3.93503C96.6494 3.99072 96.7794 4.02784 96.9093 4.02784C97.0578 4.02784 97.1692 3.99072 97.262 3.93503C97.3548 3.87935 97.429 3.76798 97.4847 3.63805C97.5404 3.50812 97.5589 3.34107 97.5589 3.11833C97.5589 2.89559 97.5404 2.72854 97.4847 2.59861C97.4476 2.5058 97.3733 2.39443 97.262 2.33875ZM97.1135 3.13689C97.1135 3.32251 97.0949 3.471 97.0392 3.54524C97.0021 3.61949 96.9464 3.61949 96.9093 3.61949C96.8722 3.61949 96.8165 3.61949 96.7794 3.52668C96.7423 3.48956 96.7051 3.37819 96.7051 3.13689C96.7051 2.9884 96.7237 2.87703 96.7422 2.80278C96.7608 2.72854 96.7794 2.69142 96.8165 2.67285C96.8351 2.65429 96.8722 2.63573 96.9093 2.63573C96.9464 2.63573 97.0021 2.65429 97.0392 2.72854C97.0764 2.78422 97.1135 2.89559 97.1135 3.13689ZM98.2086 6.25522C98.3757 6.25522 98.5056 6.19954 98.617 6.08817C98.7283 5.9768 98.784 5.84687 98.784 5.69838C98.784 5.53132 98.7283 5.40139 98.617 5.29002C98.5241 5.21578 98.4313 5.16009 98.32 5.14153L98.5984 4.62181L98.2086 4.43619L97.7446 5.29002C97.6889 5.40139 97.6518 5.47564 97.6332 5.53132C97.6146 5.58701 97.6146 5.64269 97.6146 5.69838C97.6146 5.84687 97.6703 5.9768 97.7817 6.08817C97.8931 6.19954 98.0415 6.25522 98.2086 6.25522ZM98.0601 5.69838C98.0601 5.66125 98.0787 5.62413 98.0972 5.58701C98.1158 5.56845 98.1529 5.54988 98.19 5.54988C98.2272 5.54988 98.2643 5.56845 98.3014 5.58701C98.3385 5.62413 98.3385 5.64269 98.3385 5.69838C98.3385 5.7355 98.32 5.77262 98.3014 5.80974C98.2457 5.86543 98.1529 5.86543 98.0972 5.80974C98.0787 5.77262 98.0601 5.7355 98.0601 5.69838ZM93.5311 21.7726C93.6982 21.7726 93.8281 21.7169 93.9395 21.6056C94.0508 21.4942 94.1065 21.3643 94.1065 21.2158C94.1065 21.0487 94.0508 20.9188 93.9395 20.8074C93.8467 20.7146 93.7538 20.6775 93.6425 20.6589L93.9209 20.1392L93.5311 19.9536L93.0671 20.8074C93.0114 20.9188 92.9743 20.993 92.9557 21.0487C92.9371 21.1044 92.9371 21.1601 92.9371 21.2158C92.9371 21.3643 92.9928 21.4942 93.1042 21.6056C93.2156 21.7169 93.3641 21.7726 93.5311 21.7726ZM93.3826 21.1972C93.3826 21.1601 93.4012 21.123 93.4197 21.0858C93.4383 21.0673 93.4754 21.0487 93.5125 21.0487C93.5497 21.0487 93.5868 21.0673 93.6239 21.0858C93.661 21.123 93.661 21.1415 93.661 21.1972C93.661 21.2343 93.6425 21.2715 93.6239 21.3086C93.5682 21.3643 93.4754 21.3643 93.4197 21.3086C93.4012 21.2715 93.3826 21.2529 93.3826 21.1972ZM93.2341 8.92807H93.8095V10.6543H93.3641V9.35499H92.9743L93.2341 8.92807ZM95.0346 4.49188H96.2596V4.75174L95.4801 6.29234L95.0903 6.10673L95.7028 4.91879H95.0346V4.49188ZM98.2086 18.0418L97.429 19.5638L97.0392 19.3782L97.6518 18.1903H97.0021V17.7819H98.2272L98.2086 18.0418ZM94.088 8.92807H95.313V9.18793L94.5334 10.71L94.1436 10.5244L94.7562 9.33643H94.1065V8.92807H94.088ZM97.8559 21.7169H96.5752V21.4756L97.1135 20.9559C97.2248 20.8445 97.3177 20.7517 97.3548 20.6775C97.3919 20.6218 97.4105 20.5661 97.4105 20.5104C97.4105 20.4733 97.3919 20.4362 97.3733 20.3991C97.3176 20.3434 97.2063 20.3434 97.132 20.4176C97.0949 20.4548 97.0764 20.5104 97.0764 20.5661V20.6218H96.6309V20.5476C96.6309 20.3619 96.7051 20.2135 96.8165 20.1021C96.9279 19.9907 97.0764 19.935 97.262 19.935C97.3733 19.935 97.4847 19.9536 97.5589 20.0093C97.6518 20.0464 97.726 20.1206 97.7631 20.2135C97.8188 20.3063 97.8374 20.3805 97.8374 20.4733C97.8374 20.5847 97.8002 20.6961 97.7446 20.8074C97.6889 20.9188 97.5775 21.0487 97.429 21.2158L97.3548 21.29H97.8559V21.7169ZM94.1808 12.9188L93.791 12.7332L94.4035 11.5452H93.7538V11.1369H94.9789V11.3968L94.1808 12.9188ZM95.5543 12.8631H95.9998V12.529H96.1483V12.1206H95.9998V11.0998H95.5914L94.849 12.1578L94.8304 12.1763V12.5476H95.5543V12.8631ZM95.3873 12.1206L95.5729 11.8608V12.1206H95.3873Z" fill="#F2D080"/>
<path d="M106.283 0H110.719V24H106.283V0ZM113.429 0H126.404V4.51044H122.135V24.0186H117.606V4.51044H113.429V0Z" fill="#F2D080"/>
</g>
<defs>
<clipPath id="clip0_91_1110">
<rect width="126.422" height="24" fill="white"/>
</clipPath>
</defs>
</svg>
