<svg width="104" height="104" viewBox="0 0 104 104" fill="none" xmlns="http://www.w3.org/2000/svg">
<g filter="url(#filter0_i_91_768)">
<path fill-rule="evenodd" clip-rule="evenodd" d="M47.1466 71.1971C47.1466 84.7523 59.4376 95.741 74.5989 95.741C77.9014 95.741 81.0616 95.2182 83.9984 94.2457C85.4742 95.9818 88.3066 97.76 93.7257 97.76C93.7257 97.76 91.7725 93.5315 92.3913 89.8854C98.3101 85.3842 102.059 78.6889 102.059 71.1971C102.059 57.6501 89.7602 46.6614 74.5989 46.6614C59.4376 46.6614 47.1466 57.6501 47.1466 71.1971Z" fill="url(#paint0_linear_91_768)"/>
</g>
<g filter="url(#filter1_bi_91_768)">
<path fill-rule="evenodd" clip-rule="evenodd" d="M102.059 49.4521C102.059 73.3255 79.5252 92.6786 51.7295 92.6786C45.6749 92.6786 39.8811 91.7579 34.4971 90.0452C31.7915 93.1028 26.5987 96.2346 16.6636 96.2346C16.6636 96.2346 20.2445 88.7874 19.1101 82.3659C8.25903 74.4383 1.38672 62.6466 1.38672 49.4521C1.38672 25.5932 23.9338 6.23999 51.7295 6.23999C79.5252 6.23999 102.059 25.5932 102.059 49.4521Z" fill="#FFEFE6" style="mix-blend-mode:multiply"/>
<path fill-rule="evenodd" clip-rule="evenodd" d="M102.059 49.4521C102.059 73.3255 79.5252 92.6786 51.7295 92.6786C45.6749 92.6786 39.8811 91.7579 34.4971 90.0452C31.7915 93.1028 26.5987 96.2346 16.6636 96.2346C16.6636 96.2346 20.2445 88.7874 19.1101 82.3659C8.25903 74.4383 1.38672 62.6466 1.38672 49.4521C1.38672 25.5932 23.9338 6.23999 51.7295 6.23999C79.5252 6.23999 102.059 25.5932 102.059 49.4521Z" stroke="white" stroke-opacity="0.273622" stroke-width="1.27238"/>
</g>
<g filter="url(#filter2_d_91_768)">
<path fill-rule="evenodd" clip-rule="evenodd" d="M44.5941 35.984L48.6718 39.0052C44.3225 41.7731 40.9247 46.6793 40.6531 50.7082C40.7879 50.5815 41.7394 50.4567 42.1478 50.4567C45.274 50.4567 47.5835 52.7198 47.5835 55.741C47.5835 58.6337 45.1372 61.152 41.8763 61.152C38.2069 61.152 34.9438 58.2575 34.9438 53.0979C34.9438 46.0516 39.43 39.5081 44.5941 35.984Z" fill="white"/>
</g>
<g filter="url(#filter3_d_91_768)">
<path fill-rule="evenodd" clip-rule="evenodd" d="M64.4232 35.984L68.501 39.0052C64.1516 41.7731 60.7538 46.6793 60.4822 50.7082C60.619 50.5815 61.4338 50.4567 61.9769 50.4567C65.1032 50.4567 67.4126 52.7198 67.4126 55.741C67.4126 58.6337 64.9664 61.152 61.5686 61.152C57.8992 61.152 54.7729 58.2575 54.7729 53.0979C54.7729 46.0516 59.1223 39.5081 64.4232 35.984Z" fill="white"/>
</g>
<defs>
<filter id="filter0_i_91_768" x="47.1465" y="46.6614" width="54.9121" height="59.0986" filterUnits="userSpaceOnUse" color-interpolation-filters="sRGB">
<feFlood flood-opacity="0" result="BackgroundImageFix"/>
<feBlend mode="normal" in="SourceGraphic" in2="BackgroundImageFix" result="shape"/>
<feColorMatrix in="SourceAlpha" type="matrix" values="0 0 0 0 0 0 0 0 0 0 0 0 0 0 0 0 0 0 127 0" result="hardAlpha"/>
<feOffset dy="8"/>
<feGaussianBlur stdDeviation="10"/>
<feComposite in2="hardAlpha" operator="arithmetic" k2="-1" k3="1"/>
<feColorMatrix type="matrix" values="0 0 0 0 1 0 0 0 0 0.803083 0 0 0 0 0 0 0 0 1 0"/>
<feBlend mode="normal" in2="shape" result="effect1_innerShadow_91_768"/>
</filter>
<filter id="filter1_bi_91_768" x="-33.8365" y="-28.9832" width="171.118" height="160.441" filterUnits="userSpaceOnUse" color-interpolation-filters="sRGB">
<feFlood flood-opacity="0" result="BackgroundImageFix"/>
<feGaussianBlur in="BackgroundImage" stdDeviation="17.2935"/>
<feComposite in2="SourceAlpha" operator="in" result="effect1_backgroundBlur_91_768"/>
<feBlend mode="normal" in="SourceGraphic" in2="effect1_backgroundBlur_91_768" result="shape"/>
<feColorMatrix in="SourceAlpha" type="matrix" values="0 0 0 0 0 0 0 0 0 0 0 0 0 0 0 0 0 0 127 0" result="hardAlpha"/>
<feOffset dy="-8"/>
<feGaussianBlur stdDeviation="4"/>
<feComposite in2="hardAlpha" operator="arithmetic" k2="-1" k3="1"/>
<feColorMatrix type="matrix" values="0 0 0 0 1 0 0 0 0 0.884934 0 0 0 0 0.84953 0 0 0 0.302557 0"/>
<feBlend mode="normal" in2="shape" result="effect2_innerShadow_91_768"/>
</filter>
<filter id="filter2_d_91_768" x="28.9438" y="35.984" width="27.728" height="39.168" filterUnits="userSpaceOnUse" color-interpolation-filters="sRGB">
<feFlood flood-opacity="0" result="BackgroundImageFix"/>
<feColorMatrix in="SourceAlpha" type="matrix" values="0 0 0 0 0 0 0 0 0 0 0 0 0 0 0 0 0 0 127 0" result="hardAlpha"/>
<feOffset dx="1" dy="7"/>
<feGaussianBlur stdDeviation="3.5"/>
<feColorMatrix type="matrix" values="0 0 0 0 0.952941 0 0 0 0 0.643137 0 0 0 0 0.415686 0 0 0 0.5 0"/>
<feBlend mode="normal" in2="BackgroundImageFix" result="effect1_dropShadow_91_768"/>
<feBlend mode="normal" in="SourceGraphic" in2="effect1_dropShadow_91_768" result="shape"/>
</filter>
<filter id="filter3_d_91_768" x="48.7729" y="35.984" width="27.728" height="39.168" filterUnits="userSpaceOnUse" color-interpolation-filters="sRGB">
<feFlood flood-opacity="0" result="BackgroundImageFix"/>
<feColorMatrix in="SourceAlpha" type="matrix" values="0 0 0 0 0 0 0 0 0 0 0 0 0 0 0 0 0 0 127 0" result="hardAlpha"/>
<feOffset dx="1" dy="7"/>
<feGaussianBlur stdDeviation="3.5"/>
<feColorMatrix type="matrix" values="0 0 0 0 0.952941 0 0 0 0 0.643137 0 0 0 0 0.415686 0 0 0 0.5 0"/>
<feBlend mode="normal" in2="BackgroundImageFix" result="effect1_dropShadow_91_768"/>
<feBlend mode="normal" in="SourceGraphic" in2="effect1_dropShadow_91_768" result="shape"/>
</filter>
<linearGradient id="paint0_linear_91_768" x1="114.715" y1="66.0686" x2="108.133" y2="108.987" gradientUnits="userSpaceOnUse">
<stop stop-color="#FFBF62"/>
<stop offset="1" stop-color="#FF603E"/>
</linearGradient>
</defs>
</svg>
